<svg xmlns="http://www.w3.org/2000/svg" xmlns:xlink="http://www.w3.org/1999/xlink" viewBox="546 711 77 77"><defs><style>.a{clip-path:url(#b);}.b{fill:#fc4415;}</style><clipPath id="b"><rect x="546" y="711" width="77" height="77"/></clipPath></defs><g id="a" class="a"><g transform="translate(554.998 720)"><path class="b" d="M54.172,26.612,43.146,37.634A15.4,15.4,0,0,1,18.735,34.49l5.123-5.123a3.678,3.678,0,0,1,.832-.552,7.671,7.671,0,0,0,1.924,3.307,7.8,7.8,0,0,0,11.022,0L48.657,21.1A7.795,7.795,0,1,0,37.635,10.077L33.715,14a19.557,19.557,0,0,0-9.944-1.083l8.352-8.352A15.59,15.59,0,0,1,54.172,26.612ZM25.024,44.736,21.1,48.66A7.8,7.8,0,0,1,10.078,37.634L21.1,26.612a7.8,7.8,0,0,1,11.022,0,7.714,7.714,0,0,1,1.926,3.3,3.744,3.744,0,0,0,.829-.548L40,24.247A15.321,15.321,0,0,0,37.635,21.1a15.589,15.589,0,0,0-22.046,0L4.567,32.123A15.589,15.589,0,0,0,26.613,54.17l8.354-8.354A19.545,19.545,0,0,1,25.024,44.736Z" transform="translate(0 0)"/></g></g></svg>