<svg xmlns="http://www.w3.org/2000/svg" xmlns:xlink="http://www.w3.org/1999/xlink" viewBox="546 812 77 77"><defs><style>.a{clip-path:url(#b);}.b{fill:#fc4415;}</style><clipPath id="b"><rect x="546" y="812" width="77" height="77"/></clipPath></defs><g id="a" class="a"><g transform="translate(553.4 810.4)"><path class="b" d="M62.113,12.571A10.971,10.971,0,1,0,46.5,22.477c-.375,7.241-5.806,9.7-15.246,13.239a59.672,59.672,0,0,0-12.11,5.641V22.518a10.971,10.971,0,1,0-9.143,0V57.485a10.974,10.974,0,1,0,9.216.037c.375-7.237,5.81-9.7,15.246-13.239,9.28-3.483,20.759-7.822,21.211-21.741a10.962,10.962,0,0,0,6.441-9.97ZM14.571,6.24a6.331,6.331,0,1,1-6.327,6.331A6.327,6.327,0,0,1,14.571,6.24Zm0,67.519A6.331,6.331,0,1,1,20.9,67.428,6.331,6.331,0,0,1,14.571,73.759ZM51.142,18.9a6.331,6.331,0,1,1,6.327-6.331A6.331,6.331,0,0,1,51.142,18.9Z" transform="translate(0 0)"/></g></g></svg>