<svg xmlns="http://www.w3.org/2000/svg" xmlns:xlink="http://www.w3.org/1999/xlink" viewBox="546 610 77 77"><defs><style>.a{clip-path:url(#b);}.b{fill:#fc4415;}</style><clipPath id="b"><rect x="546" y="610" width="77" height="77"/></clipPath></defs><g id="a" class="a"><g transform="translate(546.66 504.569)"><g transform="translate(0 123.73)"><path class="b" d="M59.742,129.24a48.224,48.224,0,0,0-21.556-5.51,48.224,48.224,0,0,0-21.556,5.51C9.288,133.013,3.511,138.3.334,144.128a2.709,2.709,0,0,0,1.08,3.679,2.761,2.761,0,0,0,1.3.329,2.719,2.719,0,0,0,2.379-1.409c4.2-7.686,13.056-13.212,21.963-15.842a17.251,17.251,0,1,0,22.229,0c8.907,2.63,17.768,8.156,21.963,15.842a2.688,2.688,0,0,0,2.379,1.409,2.808,2.808,0,0,0,1.3-.329,2.709,2.709,0,0,0,1.08-3.679C72.86,138.3,67.084,133.013,59.742,129.24ZM38.186,151.2a7.131,7.131,0,0,1,0-14.261,2.768,2.768,0,0,1,.36.016,5.261,5.261,0,0,0-.36,1.925,5.218,5.218,0,0,0,7.123,4.837c0,.11.016.2.016.313A7.142,7.142,0,0,1,38.186,151.2Z" transform="translate(0 -123.73)"/></g></g></g></svg>