<svg xmlns="http://www.w3.org/2000/svg" xmlns:xlink="http://www.w3.org/1999/xlink" viewBox="671 186 100 100"><defs><style>.a{clip-path:url(#b);}.b{fill:#fc4415;}</style><clipPath id="b"><rect x="671" y="186" width="100" height="100"/></clipPath></defs><g id="a" class="a"><path class="b" d="M8.76,1l6.563,73.683,29.45,8.212,29.533-8.242L80.875,1H8.76ZM67.24,17.881,65.055,42.428l.007.133-.009.3v0L63.5,60.026l-.171,1.525L44.817,66.67h0l-.014.012-18.48-5.149-1.251-14.19h9.062l.643,7.215L44.82,57.282l0,.005h0l10.08-2.76,1.065-11.75H34.891l-.181-1.986L34.3,36.136l-.216-2.5H56.764l.825-9.138H23.042l-.181-1.985-.411-4.655-.217-2.5H67.456l-.216,2.521Z" transform="translate(676.17 194.006)"/></g></svg>