<svg xmlns="http://www.w3.org/2000/svg" xmlns:xlink="http://www.w3.org/1999/xlink" viewBox="776 300 100 100"><defs><style>.a{clip-path:url(#b);}.b{fill:#fc4415;fill-rule:evenodd;}</style><clipPath id="b"><rect x="776" y="300" width="100" height="100"/></clipPath></defs><g id="a" class="a"><path class="b" d="M36.961,29.386c.716,7.534,1.426,15.025,2.152,22.684a44.541,44.541,0,0,1,3.334-5.588,16.189,16.189,0,0,1,4.372-3.817A3.98,3.98,0,0,1,52.5,44.8c.188.592-.26,1.385-.417,2.086-.527-.278-1.207-.432-1.551-.858-1.463-1.809-2.344-2.023-3.963-.459A18.453,18.453,0,0,0,41.2,56.249a7.215,7.215,0,0,0,.582,2.534,8.969,8.969,0,0,0,2.45-.885,11.668,11.668,0,0,0,4.252-6.43c.161-.568,1.032-.934,1.577-1.394.261.537.857,1.169.732,1.595-1.148,3.95-2.394,7.874-3.7,11.775-.132.395-.858.592-1.309.881-.182-.519-.565-1.062-.5-1.551a27.782,27.782,0,0,1,.743-3.2l-5.908,2.72c.33,3.772.673,8,1.08,12.228.312,3.227.84,4.062,4.017,4.674a97.452,97.452,0,0,0,11.255,1.448,49.282,49.282,0,0,0,16.509-1.554c2.017-.542,2.822-1.869,2.966-3.849.132-1.824.428-3.636.632-5.455.4-3.583.793-7.167,1.2-10.9A18.714,18.714,0,0,1,74.1,61.114c-.911.3-2.06-.138-3.1-.247a9.882,9.882,0,0,1,.65-2.846,34.683,34.683,0,0,1,2.745-3.684l-.4-.482a7.425,7.425,0,0,0-1.969,1.212,18.019,18.019,0,0,0-2.554,3.689c-1.08,2.232-1.9,4.588-2.871,6.876-.42.992-.783,2.51-2.19,1.931-1.506-.621-.446-1.947-.093-2.89.562-1.5,1.3-2.943,1.808-4.049-1.425.17-2.869.375-4.32.5-.614.052-1.343-.284-1.845-.057-1.669.754-2.726.451-3.073-1.4a8.289,8.289,0,0,1-2.2,1.364,4.112,4.112,0,0,1-2.891-.1c-.549-.375-.749-1.782-.561-2.608a28.871,28.871,0,0,1,1.732-4.781c.41-.967.822-2.511,2.2-1.839,1.366.663.126,1.783-.189,2.682-.489,1.389-.987,2.775-1.479,4.163l.783.473a11.275,11.275,0,0,0,2.2-1.971c.855-1.3,1.372-2.817,2.181-4.15.335-.552,1.058-.869,1.605-1.293a7.8,7.8,0,0,1,.289,2.105,11.325,11.325,0,0,1-.8,1.993c-.347,1.017-.627,2.056-.979,3.239a2.547,2.547,0,0,0,2.852-1.876c1.49-3.911,3-7.819,4.634-11.669.28-.659,1.231-1.031,1.874-1.537a5.978,5.978,0,0,1,.176,2.366c-1.342,3.549-2.85,7.034-4.266,10.556a13.328,13.328,0,0,0-.467,1.88c2.5-1.122,4.58-2.362,5.34-5.015.186-.645.948-1.124,1.445-1.679L71.517,53.2a10.892,10.892,0,0,1,1.054-.877c1.2-.773,2.491-1.454,3.756-.257,1.309,1.238.318,2.444-.366,3.515-.744,1.168-1.656,2.228-2.495,3.334,1.887-1.216,4.463-1.761,4.806-4.389.836-6.418,1.57-12.849,2.315-19.279.221-1.9.339-3.818.512-5.8a90.635,90.635,0,0,1-44.138-.056Zm6.378,50.08c.716,1.891,1.8,3.748,2.087,5.721.6,4.2.754,8.464,1.18,12.693a2.485,2.485,0,0,0,.959,1.733c7.328,3.982,14.727,4.673,22.2.317a3.044,3.044,0,0,0,1.466-2.713c.7-5.86-.858-12.076,2.889-17.594a59.034,59.034,0,0,1-30.785-.157Zm25.29-49.028c3.56-.344,7.076-1.179,10.6-1.87A7.526,7.526,0,0,0,81.1,27.6a4.154,4.154,0,0,0-2.275-1.157c-3.7-.437-7.406-.773-11.1-1.231a2.858,2.858,0,0,1-1.513-.884c1.078-3.248,1.025-6.924,3.471-9.661C72.776,11.208,75.9,7.779,79,4.347c-2.306-2.481-2.337-2.484-4.427-.313-1.182,1.227-2.261,2.571-3.543,3.682-4.744,4.111-8.076,8.981-8.725,15.4-.149,1.473-.958,2.005-2.5,2.028-5.105.074-10.216.215-15.31.55a73.849,73.849,0,0,0-7.525,1.243l-.023.938A45.309,45.309,0,0,0,41.654,29.3a94.494,94.494,0,0,0,26.975,1.135ZM65.776,28.2c-2.021,1.632-3.692,1.632-5.305,0Z" transform="translate(767.057 297.556)"/></g></svg>