<?xml version="1.0" encoding="utf-8"?>
<!-- Generator: Adobe Illustrator 16.0.0, SVG Export Plug-In . SVG Version: 6.00 Build 0)  -->
<!DOCTYPE svg PUBLIC "-//W3C//DTD SVG 1.1//EN" "http://www.w3.org/Graphics/SVG/1.1/DTD/svg11.dtd">
<svg version="1.1" id="Layer_1" xmlns="http://www.w3.org/2000/svg" xmlns:xlink="http://www.w3.org/1999/xlink" x="0px" y="0px"
	 width="77px" height="77px" viewBox="321.5 601.5 77 77" enable-background="new 321.5 601.5 77 77" xml:space="preserve">
<g id="a_1_">
	<path fill="#FC4415" d="M343.091,622.149c0.549,5.774,1.093,11.516,1.649,17.386c0.746-1.488,1.6-2.919,2.555-4.282
		c0.932-1.17,2.067-2.16,3.352-2.926c1.472-0.819,3.329-0.289,4.148,1.183c0.08,0.146,0.149,0.297,0.205,0.453
		c0.145,0.454-0.199,1.062-0.319,1.6c-0.404-0.214-0.925-0.331-1.188-0.658c-1.122-1.386-1.797-1.55-3.038-0.352
		c-2.241,2.196-3.689,5.076-4.114,8.186c0.029,0.668,0.181,1.326,0.445,1.941c0.656-0.133,1.289-0.361,1.878-0.678
		c1.613-1.227,2.763-2.965,3.259-4.928c0.124-0.436,0.791-0.716,1.209-1.068c0.2,0.411,0.657,0.896,0.561,1.222
		c-0.879,3.029-1.834,6.035-2.835,9.025c-0.102,0.303-0.658,0.453-1.004,0.676c-0.14-0.398-0.433-0.814-0.383-1.189
		c0.142-0.828,0.331-1.646,0.569-2.453l-4.528,2.086c0.253,2.891,0.516,6.131,0.828,9.371c0.239,2.475,0.644,3.113,3.079,3.582
		c2.851,0.537,5.731,0.908,8.626,1.111c4.253,0.32,8.532-0.082,12.651-1.191c1.547-0.416,2.164-1.434,2.273-2.951
		c0.102-1.396,0.328-2.785,0.484-4.18c0.307-2.746,0.609-5.494,0.92-8.355c-0.871,0.676-1.816,1.25-2.818,1.709
		c-0.699,0.23-1.578-0.105-2.377-0.189c0.059-0.748,0.227-1.482,0.5-2.182c0.637-0.986,1.34-1.93,2.104-2.824l-0.307-0.369
		c-0.549,0.229-1.059,0.543-1.51,0.93c-0.768,0.857-1.426,1.807-1.957,2.826c-0.828,1.711-1.457,3.518-2.201,5.271
		c-0.322,0.76-0.6,1.924-1.678,1.479c-1.154-0.475-0.342-1.492-0.072-2.215c0.432-1.148,0.998-2.254,1.387-3.104
		c-1.092,0.131-2.199,0.289-3.311,0.385c-0.471,0.039-1.029-0.219-1.414-0.045c-1.279,0.578-2.09,0.346-2.355-1.072
		c-0.504,0.436-1.073,0.787-1.687,1.045c-0.724,0.244-1.511,0.217-2.216-0.076c-0.42-0.287-0.573-1.365-0.43-1.998
		c0.334-1.26,0.778-2.484,1.327-3.666c0.314-0.74,0.631-1.923,1.687-1.409c1.047,0.508,0.097,1.366-0.145,2.055
		c-0.375,1.064-0.757,2.127-1.134,3.191l0.601,0.361c0.625-0.426,1.192-0.934,1.686-1.51c0.655-0.996,1.052-2.158,1.672-3.18
		c0.257-0.424,0.811-0.666,1.23-0.991c0.146,0.525,0.221,1.067,0.221,1.613c-0.155,0.527-0.36,1.039-0.613,1.527
		c-0.266,0.779-0.48,1.576-0.75,2.482c0.989,0.152,1.934-0.469,2.186-1.438c1.143-2.998,2.299-5.993,3.551-8.943
		c0.215-0.506,0.943-0.791,1.438-1.179c0.166,0.59,0.211,1.206,0.135,1.813c-1.029,2.721-2.186,5.392-3.27,8.091
		c-0.154,0.471-0.273,0.951-0.357,1.439c1.916-0.859,3.51-1.809,4.092-3.844c0.143-0.494,0.727-0.861,1.107-1.286l0.881,0.942
		c0.256-0.241,0.525-0.465,0.809-0.672c0.92-0.593,1.908-1.114,2.879-0.197c1.004,0.949,0.244,1.873-0.281,2.695
		c-0.57,0.895-1.27,1.707-1.912,2.555c1.447-0.932,3.42-1.35,3.684-3.363c0.641-4.919,1.203-9.849,1.775-14.777
		c0.168-1.456,0.26-2.926,0.391-4.445c-11.107,2.773-22.727,2.759-33.827-0.043V622.149z M347.979,660.531
		c0.549,1.449,1.38,2.873,1.6,4.385c0.46,3.219,0.578,6.488,0.904,9.729c0.051,0.525,0.317,1.008,0.735,1.328
		c5.616,3.053,11.286,3.582,17.015,0.244c0.723-0.439,1.154-1.234,1.123-2.08c0.537-4.49-0.658-9.256,2.215-13.484
		c-7.738,2.047-15.879,2.006-23.595-0.121H347.979z M367.361,622.956c2.729-0.264,5.424-0.904,8.125-1.434
		c0.51-0.179,0.992-0.428,1.434-0.742c-0.475-0.471-1.084-0.782-1.744-0.887c-2.836-0.335-5.676-0.593-8.508-0.943
		c-0.447-0.099-0.854-0.336-1.158-0.678c0.826-2.489,0.785-5.307,2.66-7.404c2.369-2.651,4.764-5.279,7.141-7.91
		c-1.768-1.901-1.791-1.904-3.393-0.24c-0.906,0.94-1.734,1.97-2.717,2.822c-3.635,3.151-6.189,6.883-6.688,11.803
		c-0.113,1.129-0.732,1.537-1.915,1.554c-3.912,0.057-7.829,0.165-11.733,0.421c-1.938,0.218-3.863,0.536-5.768,0.953l-0.018,0.719
		c1.182,0.429,2.386,0.793,3.607,1.092c6.814,1.278,13.777,1.571,20.674,0.87V622.956z M365.176,621.24
		c-1.551,1.25-2.83,1.25-4.066,0H365.176z"/>
</g>
</svg>
