<svg xmlns="http://www.w3.org/2000/svg" xmlns:xlink="http://www.w3.org/1999/xlink" viewBox="546 186 100 100"><defs><style>.a{clip-path:url(#b);}.b{fill:#fc4415;}</style><clipPath id="b"><rect x="546" y="186" width="100" height="100"/></clipPath></defs><g id="a" class="a"><path class="b" d="M9.032,2l6.626,74.239,29.735,8.213,29.817-8.2L81.843,2H9.032ZM68.06,19.577l-.415,4.75-.183,2.178H32.582l.833,9.272H66.633l-.223,2.3L64.269,62l-.158,1.5L45.437,68.633h0l-.023.012L26.753,63.73,25.486,49.686h9.15l.648,7.232,10.125,2.7h.028v-.362l10.17-2.566L56.669,45.05H25.079L22.838,19.8l-.218-2.572H68.279l-.219,2.344Z" transform="translate(550.716 192.774)"/></g></svg>