<?xml version="1.0" encoding="utf-8"?>
<!-- Generator: Adobe Illustrator 16.0.0, SVG Export Plug-In . SVG Version: 6.00 Build 0)  -->
<!DOCTYPE svg PUBLIC "-//W3C//DTD SVG 1.1//EN" "http://www.w3.org/Graphics/SVG/1.1/DTD/svg11.dtd">
<svg version="1.1" id="Layer_1" xmlns="http://www.w3.org/2000/svg" xmlns:xlink="http://www.w3.org/1999/xlink" x="0px" y="0px"
	 width="77px" height="77px" viewBox="321.5 601.5 77 77" enable-background="new 321.5 601.5 77 77" xml:space="preserve">
<g id="a">
	<path fill="#FC4415" d="M334,614v52h52v-52H334z M361.506,658.31c-0.815,1.535-2.242,2.652-3.929,3.077
		c-2.344,0.619-4.836,0.311-6.96-0.855c-1.249-0.8-2.244-1.939-2.87-3.286l3.96-2.428c0.107,0.139,0.201,0.289,0.277,0.447
		c0.386,0.796,1.016,1.448,1.797,1.864c0.842,0.285,2.688,0.472,3.4-1.009c0.436-0.754,0.297-3.173,0.297-5.853
		c0-4.208,0.021-8.398,0.021-12.558h4.871c0,4.576,0.024,8.911,0,13.377C362.377,653.824,362.615,656.266,361.506,658.31z
		 M381.712,656.935c-1.693,5.791-11.133,5.978-14.905,2.153c-0.725-0.697-1.323-1.514-1.772-2.411
		c2.006-1.154,2.006-1.154,3.956-2.281c1.06,1.627,2.038,2.522,3.802,2.891c2.391,0.292,4.797-0.53,4.256-3.071
		c-0.554-2.072-4.896-2.58-7.851-4.796c-2.999-2.015-3.702-6.91-1.237-9.708c0.973-1.097,2.264-1.858,3.694-2.178l1.533-0.199
		c2.945-0.059,4.785,0.718,6.142,2.228c0.479,0.513,0.9,1.077,1.258,1.683c-1.571,0.999-1.564,0.989-3.813,2.445
		c-0.402-0.92-1.17-1.633-2.118-1.966c-1.306-0.396-2.954,0.034-3.297,1.416c-0.116,0.508-0.084,1.038,0.094,1.525
		c0.529,1.206,2.308,1.73,3.901,2.464c4.588,1.862,6.142,3.857,6.52,6.231c0.251,1.185,0.196,2.415-0.157,3.573H381.712z"/>
</g>
</svg>
