<svg xmlns="http://www.w3.org/2000/svg" xmlns:xlink="http://www.w3.org/1999/xlink" viewBox="796 186 100 100"><defs><style>.a{clip-path:url(#b);}.b{fill:#fc4415;}</style><clipPath id="b"><rect x="796" y="186" width="100" height="100"/></clipPath></defs><g id="a" class="a"><path class="b" d="M2,1V73.81H74.81V1ZM40.513,63.042a8.609,8.609,0,0,1-5.5,4.311,13.238,13.238,0,0,1-9.745-1.2,10.96,10.96,0,0,1-4.02-4.6l5.545-3.4a3.509,3.509,0,0,1,.389.624,5.855,5.855,0,0,0,2.516,2.612c1.178.4,3.763.659,4.762-1.414.61-1.054.416-4.443.416-8.193,0-5.892.027-11.759.027-17.584h6.82c0,6.407.035,12.476,0,18.728C41.733,56.762,42.066,60.179,40.513,63.042Zm28.293-1.927c-2.371,8.109-15.588,8.373-20.87,3.015a12.324,12.324,0,0,1-2.481-3.375c2.807-1.615,2.807-1.615,5.538-3.195,1.484,2.28,2.855,3.534,5.323,4.048,3.348.409,6.717-.742,5.961-4.3-.776-2.9-6.856-3.611-10.993-6.717C47.084,47.772,46.1,40.917,49.551,37a9.744,9.744,0,0,1,5.171-3.049l2.148-.278c4.125-.083,6.7,1.006,8.6,3.119a13.612,13.612,0,0,1,1.76,2.356c-2.2,1.4-2.19,1.387-5.337,3.424a5.078,5.078,0,0,0-2.967-2.752c-1.83-.555-4.138.048-4.617,1.982a3.765,3.765,0,0,0,.132,2.135c.741,1.691,3.23,2.426,5.462,3.452,6.425,2.606,8.6,5.4,9.129,8.726a10,10,0,0,1-.221,5Z" transform="translate(808 199)"/></g></svg>