<?xml version="1.0" encoding="utf-8"?>
<!-- Generator: Adobe Illustrator 16.0.0, SVG Export Plug-In . SVG Version: 6.00 Build 0)  -->
<!DOCTYPE svg PUBLIC "-//W3C//DTD SVG 1.1//EN" "http://www.w3.org/Graphics/SVG/1.1/DTD/svg11.dtd">
<svg version="1.1" id="Layer_1" xmlns="http://www.w3.org/2000/svg" xmlns:xlink="http://www.w3.org/1999/xlink" x="0px" y="0px"
	 width="77px" height="77px" viewBox="321.5 601.5 77 77" enable-background="new 321.5 601.5 77 77" xml:space="preserve">
<g id="a">
	<path fill="#FC4415" d="M391.312,618.561l-28.109-16.305c-1.828-1.008-4.047-1.008-5.876,0l-28.328,16.305
		c-1.858,1.052-3.025,3.005-3.069,5.14v32.567c0.056,2.141,1.231,4.096,3.096,5.148l7.469,4.258
		c3.584,1.766,4.576,1.766,6.207,1.766c5.307,0,8.062-3.209,8.062-8.805v-32.153c0-0.454,0.285-1.129-0.162-1.129h-3.581
		c-0.453,0-1.352,0.676-1.352,1.129v32.151c0,2.48-2.303,4.949-6.497,2.852l-7.719-4.471c-0.27-0.152-0.434-0.441-0.431-0.752
		v-32.561c0.055-0.333,0.266-0.62,0.567-0.771l28.26-16.278c0.281-0.149,0.619-0.149,0.9,0l27.996,16.273
		c0.268,0.161,0.226,0.462,0.226,0.776v32.567c0,0.309,0.059,0.617-0.206,0.764l-28.103,16.285c-0.254,0.145-0.565,0.145-0.818,0
		l-7.207-4.297c-0.203-0.137-0.464-0.158-0.688-0.055c-1.331,0.82-2.76,1.473-4.252,1.938c-0.463,0.162-1.146,0.441,0.26,1.229
		l9.423,5.574c1.836,1.061,4.098,1.061,5.934,0l27.999-16.287c1.779-1.094,2.831-3.061,2.753-5.146v-32.571
		C394.146,621.615,393.093,619.649,391.312,618.561z M369.057,651.107c-7.468,0-9.112-2.061-9.66-5.773
		c-0.064-0.4-0.403-0.879-0.812-0.879h-3.648c-0.451,0-0.815,0.549-0.815,0.998c0,4.754,2.586,10.514,14.936,10.514
		c8.938,0,14.065-3.473,14.065-9.621c0-6.096-4.118-7.695-12.792-8.843c-8.76-1.157-9.648-1.745-9.648-3.796
		c0-1.695,0.754-3.949,7.244-3.949c5.797,0,7.937,1.244,8.813,5.151c0.082,0.37,0.411,0.634,0.79,0.632h3.664
		c0.226,0,0.441-0.092,0.599-0.253c0.154-0.168,0.232-0.395,0.214-0.623c-0.568-6.729-5.039-9.863-14.08-9.863
		c-8.045,0-12.842,3.396-12.842,9.093c0,6.176,4.777,7.883,12.494,8.646c9.237,0.906,9.955,2.256,9.955,4.072
		C377.531,649.764,374.997,651.107,369.057,651.107z"/>
</g>
</svg>
