<svg xmlns="http://www.w3.org/2000/svg" xmlns:xlink="http://www.w3.org/1999/xlink" viewBox="661 300 100 100"><defs><style>.a{clip-path:url(#b);}.b{fill:#fc4415;}</style><clipPath id="b"><rect x="661" y="300" width="100" height="100"/></clipPath></defs><g id="a" class="a"><path class="b" d="M94.851,25.682,58.372,4.523a7.894,7.894,0,0,0-7.625,0L13.983,25.682A7.853,7.853,0,0,0,10,32.353V74.616a7.908,7.908,0,0,0,4.018,6.68l9.693,5.527c4.65,2.291,5.938,2.291,8.054,2.291,6.887,0,10.464-4.164,10.464-11.427V35.962c0-.589.369-1.466-.211-1.466H37.371c-.588,0-1.754.877-1.754,1.465V77.685c0,3.22-2.988,6.423-8.431,3.7l-10.017-5.8a1.108,1.108,0,0,1-.559-.976V32.353a1.363,1.363,0,0,1,.736-1L54.02,10.228a1.246,1.246,0,0,1,1.169,0L91.52,31.346c.348.209.293.6.293,1.007V74.616c0,.4.076.8-.267.99L55.075,96.742a1.072,1.072,0,0,1-1.062,0l-9.352-5.577a.912.912,0,0,0-.892-.071,24.329,24.329,0,0,1-5.519,2.515c-.6.209-1.487.572.337,1.594l12.229,7.234a7.705,7.705,0,0,0,7.7,0L94.852,81.3a7.507,7.507,0,0,0,3.572-6.68V32.353A7.484,7.484,0,0,0,94.851,25.682ZM65.968,67.919c-9.691,0-11.825-2.673-12.536-7.492-.084-.519-.524-1.14-1.053-1.14H47.644c-.586,0-1.058.711-1.058,1.294,0,6.17,3.355,13.645,19.382,13.645,11.6,0,18.253-4.508,18.253-12.486,0-7.91-5.344-9.986-16.6-11.475C56.253,48.763,55.1,48,55.1,45.339c0-2.2.978-5.126,9.4-5.126,7.523,0,10.3,1.615,11.438,6.686a1.045,1.045,0,0,0,1.026.819h4.755a1.085,1.085,0,0,0,.776-.327,1.07,1.07,0,0,0,.278-.809c-.738-8.734-6.539-12.8-18.273-12.8-10.439,0-16.665,4.408-16.665,11.8,0,8.014,6.2,10.229,16.215,11.22,11.987,1.175,12.919,2.927,12.919,5.285C76.966,66.175,73.678,67.919,65.968,67.919Z" transform="translate(657 296.459)"/></g></svg>