<?xml version="1.0" encoding="utf-8"?>
<!-- Generator: Adobe Illustrator 16.0.0, SVG Export Plug-In . SVG Version: 6.00 Build 0)  -->
<!DOCTYPE svg PUBLIC "-//W3C//DTD SVG 1.1//EN" "http://www.w3.org/Graphics/SVG/1.1/DTD/svg11.dtd">
<svg version="1.1" id="Layer_1" xmlns="http://www.w3.org/2000/svg" xmlns:xlink="http://www.w3.org/1999/xlink" x="0px" y="0px"
	 width="77px" height="77px" viewBox="321.5 601.5 77 77" enable-background="new 321.5 601.5 77 77" xml:space="preserve">
<g id="a">
	<path fill="#FC4415" d="M353.648,639.133h12.627c3.529-0.067,6.339-2.976,6.285-6.505v-12.04c0-3.427-2.873-6.001-6.306-6.573
		c-2.174-0.356-4.374-0.528-6.577-0.515c-2.004,0.001-4.004,0.174-5.979,0.515c-5.351,0.944-6.26,2.924-6.26,6.573v4.686h12.561
		v1.732h-17.42c-3.675-0.001-6.893,2.211-7.899,6.414c-1.161,4.815-1.213,7.761,0,12.791c0.898,3.742,3.045,6.349,6.72,6.349h4.308
		v-5.652C345.829,642.601,349.34,639.163,353.648,639.133z M352.849,622.193c-1.331,0.021-2.427-1.042-2.446-2.373
		c-0.021-1.331,1.042-2.425,2.373-2.446c1.33-0.02,2.425,1.042,2.445,2.373c0,0.014,0,0.029,0,0.043
		c0.01,1.318-1.052,2.393-2.369,2.402C352.851,622.193,352.85,622.193,352.849,622.193z M385.241,633.421
		c-0.907-3.662-2.643-6.416-6.322-6.416h-4.627v5.622c0,4.353-3.809,7.805-8.017,7.805h-12.627c-3.459,0-6.206,3.172-6.206,6.636
		v12.042c0,3.426,2.922,5.442,6.264,6.425c4.097,1.286,8.488,1.286,12.584,0c3.184-0.922,6.275-2.776,6.275-6.425v-4.818h-12.566
		v-1.731h18.92c3.674,0,5.044-2.501,6.322-6.349C386.562,642.25,386.505,638.502,385.241,633.421L385.241,633.421z M367.07,657.504
		c1.33-0.021,2.425,1.041,2.446,2.372c0.021,1.331-1.043,2.426-2.373,2.445c-1.331,0.021-2.426-1.042-2.446-2.372
		c0-0.015,0-0.028,0-0.043c-0.008-1.318,1.053-2.395,2.37-2.402C367.068,657.504,367.07,657.504,367.07,657.504z"/>
</g>
</svg>
