<svg xmlns="http://www.w3.org/2000/svg" xmlns:xlink="http://www.w3.org/1999/xlink" viewBox="1006 186 100 100"><defs><style>.a{clip-path:url(#b);}.b{fill:none;stroke:#fc4415;stroke-width:5px;}</style><clipPath id="b"><rect x="1006" y="186" width="100" height="100"/></clipPath></defs><g id="a" class="a"><path class="b" d="M38.2,47.626H60.273A11.2,11.2,0,0,0,71.259,36.255V15.208c0-5.99-5.021-10.491-11.02-11.49a68.648,68.648,0,0,0-11.5-.9,61.676,61.676,0,0,0-10.452.9c-9.354,1.651-10.943,5.111-10.943,11.49V23.4H49.3v3.029H18.848C12.424,26.426,6.8,30.294,5.04,37.64,3.01,46.059,2.92,51.207,5.04,60c1.571,6.543,5.323,11.1,11.747,11.1h7.53V61.218A13.987,13.987,0,0,1,38.2,47.626ZM36.8,18.014a4.212,4.212,0,1,1,4.148-4.2A4.171,4.171,0,0,1,36.8,18.014ZM93.429,37.64c-1.588-6.4-4.621-11.214-11.053-11.214H74.288v9.828c0,7.609-6.658,13.643-14.015,13.643H38.2c-6.048,0-10.85,5.547-10.85,11.6V82.549c0,5.989,5.107,9.513,10.95,11.231a36.715,36.715,0,0,0,22,0c5.564-1.612,10.969-4.854,10.969-11.231V74.126H49.3V71.1H82.376c6.424,0,8.818-4.373,11.053-11.1,2.307-6.924,2.208-13.476,0-22.357Zm-31.766,42.1a4.212,4.212,0,1,1-4.148,4.2,4.172,4.172,0,0,1,4.148-4.2Z" transform="translate(1007.017 186.685)"/></g></svg>