<?xml version="1.0" encoding="utf-8"?>
<!-- Generator: Adobe Illustrator 16.0.0, SVG Export Plug-In . SVG Version: 6.00 Build 0)  -->
<!DOCTYPE svg PUBLIC "-//W3C//DTD SVG 1.1//EN" "http://www.w3.org/Graphics/SVG/1.1/DTD/svg11.dtd">
<svg version="1.1" id="Layer_1" xmlns="http://www.w3.org/2000/svg" xmlns:xlink="http://www.w3.org/1999/xlink" x="0px" y="0px"
	 width="77px" height="77px" viewBox="321.5 601.5 77 77" enable-background="new 321.5 601.5 77 77" xml:space="preserve">
<g id="a">
	<g transform="translate(890.54 183.587)">
		<circle fill="#FC4415" cx="-530.536" cy="456.414" r="7.012"/>
		<path fill="#FC4415" d="M-503.904,444.849c-1.353-0.491-2.768-0.983-4.24-1.412c0.369-1.477,0.677-2.953,0.923-4.367
			c1.292-8.12-0.124-13.84-4.06-16.054c-1.2-0.679-2.562-1.019-3.94-0.985c-4.307,0-9.779,3.198-15.314,8.549
			c-5.536-5.351-11.011-8.549-15.315-8.549c-1.377-0.033-2.737,0.307-3.938,0.983c-3.938,2.276-5.352,7.996-4.059,16.058
			c0.246,1.413,0.549,2.891,0.923,4.366c-1.438,0.398-2.854,0.87-4.241,1.414c-7.692,2.95-11.874,7.009-11.874,11.561
			s4.24,8.611,11.87,11.563c1.354,0.492,2.769,0.984,4.24,1.414c-0.369,1.477-0.677,2.952-0.922,4.366
			c-1.289,8.12,0.125,13.841,4.062,16.055c1.2,0.677,2.561,1.017,3.938,0.983c4.367,0,9.842-3.198,15.313-8.549
			c5.535,5.351,11.009,8.549,15.313,8.549c1.376,0.033,2.736-0.307,3.937-0.983c3.937-2.277,5.352-7.996,4.06-16.054
			c-0.246-1.414-0.551-2.891-0.923-4.367c1.437-0.396,2.852-0.868,4.24-1.413c7.688-2.952,11.871-7.012,11.871-11.563
			S-496.216,447.803-503.904,444.849z M-513.008,426.09c2.522,1.477,3.384,6.028,2.338,12.486c-0.212,1.369-0.501,2.724-0.863,4.06
			c-3.343-0.749-6.732-1.264-10.147-1.538c-1.977-2.785-4.111-5.454-6.396-7.994c4.555-4.49,9.164-7.565,12.916-7.565
			c0.755-0.016,1.498,0.174,2.152,0.55V426.09z M-519.896,462.564c-1.106,1.968-2.399,3.938-3.752,5.904
			c-2.277,0.186-4.555,0.246-6.888,0.246c-2.399,0-4.676-0.061-6.89-0.246c-1.353-1.967-2.583-3.936-3.691-5.904
			c-1.167-2.03-2.276-4.122-3.259-6.15c0.983-2.03,2.092-4.122,3.259-6.15c1.108-1.969,2.399-3.938,3.754-5.904
			c2.276-0.186,4.554-0.246,6.888-0.246c2.399,0,4.675,0.061,6.889,0.246c1.354,1.967,2.583,3.936,3.69,5.904
			c1.169,2.029,2.277,4.121,3.261,6.15C-517.682,458.442-518.727,460.473-519.896,462.564z M-514.791,460.534
			c0.923,2.152,1.66,4.24,2.336,6.335c-2.091,0.492-4.306,0.864-6.642,1.169c0.737-1.169,1.537-2.399,2.214-3.69
			C-516.144,463.056-515.469,461.763-514.791,460.534L-514.791,460.534z M-530.536,477.202c-1.477-1.599-2.892-3.32-4.241-5.104
			c1.413,0.061,2.827,0.123,4.241,0.123c1.412,0,2.826-0.062,4.24-0.123C-527.646,473.882-529.06,475.603-530.536,477.202z
			 M-541.977,467.976c-2.337-0.308-4.555-0.677-6.643-1.168c0.677-2.03,1.414-4.183,2.338-6.336c0.677,1.23,1.353,2.521,2.09,3.753
			C-543.453,465.578-542.716,466.746-541.977,467.976z M-546.282,452.292c-0.923-2.152-1.662-4.24-2.338-6.334
			c2.092-0.493,4.306-0.864,6.643-1.169c-0.738,1.169-1.537,2.399-2.215,3.691C-544.932,449.769-545.605,451.062-546.282,452.292z
			 M-530.536,435.624c1.476,1.599,2.89,3.32,4.24,5.104c-1.414-0.062-2.828-0.123-4.24-0.123c-1.414,0-2.828,0.061-4.241,0.123
			C-533.424,438.944-532.01,437.223-530.536,435.624z M-516.883,448.54l-2.213-3.69c2.338,0.309,4.556,0.677,6.644,1.169
			c-0.677,2.03-1.414,4.184-2.337,6.336C-515.468,451.062-516.144,449.769-516.883,448.54z M-550.403,438.576
			c-1.045-6.458-0.185-11.01,2.337-12.486c0.654-0.375,1.398-0.565,2.152-0.55c3.691,0,8.305,3.015,12.917,7.566
			c-2.299,2.525-4.436,5.195-6.397,7.991c-3.411,0.305-6.8,0.818-10.148,1.538c-0.369-1.413-0.614-2.769-0.863-4.06H-550.403z
			 M-565.596,456.413c0-2.891,3.505-5.968,9.659-8.245c1.287-0.504,2.602-0.934,3.938-1.288c1.046,3.266,2.278,6.47,3.69,9.594
			c-1.438,3.094-2.672,6.278-3.69,9.534C-560.491,463.548-565.596,459.857-565.596,456.413z M-548.066,486.74
			c-2.52-1.48-3.383-6.031-2.337-12.487c0.212-1.367,0.5-2.723,0.864-4.059c3.342,0.75,6.733,1.264,10.147,1.538
			c1.978,2.784,4.112,5.453,6.396,7.991c-4.555,4.491-9.166,7.566-12.919,7.566C-546.668,487.306-547.412,487.115-548.066,486.74z
			 M-510.67,474.253c1.045,6.459,0.185,11.011-2.338,12.487c-0.654,0.375-1.397,0.565-2.152,0.55c-3.69,0-8.303-3.015-12.916-7.566
			c2.299-2.526,4.435-5.197,6.396-7.995c3.411-0.305,6.801-0.818,10.148-1.538C-511.163,471.605-510.916,472.959-510.67,474.253z
			 M-505.135,464.658c-1.287,0.505-2.602,0.937-3.937,1.292c-1.046-3.267-2.278-6.47-3.691-9.595
			c1.439-3.093,2.673-6.277,3.691-9.533c8.488,2.458,13.594,6.149,13.594,9.591c0,2.891-3.567,5.967-9.657,8.242V464.658z"/>
	</g>
</g>
</svg>
