<svg xmlns="http://www.w3.org/2000/svg" xmlns:xlink="http://www.w3.org/1999/xlink" viewBox="891 186 100 100"><defs><style>.a{clip-path:url(#b);}.b{fill:#fc4415;}</style><clipPath id="b"><rect x="891" y="186" width="100" height="100"/></clipPath></defs><g id="a" class="a"><g transform="translate(890.54 183.587)"><circle class="b" cx="8.929" cy="8.929" r="8.929" transform="translate(41.501 42.954)"/><path class="b" d="M84.344,37.158c-1.723-.627-3.525-1.253-5.4-1.8.47-1.88.862-3.759,1.175-5.561,1.645-10.339-.157-17.623-5.169-20.442A9.729,9.729,0,0,0,69.932,8.1c-5.483,0-12.453,4.073-19.5,10.887C43.381,12.173,36.41,8.1,30.928,8.1a9.729,9.729,0,0,0-5.013,1.253C20.9,12.251,19.1,19.535,20.746,29.8c.313,1.8.7,3.681,1.175,5.561a54.623,54.623,0,0,0-5.4,1.8C6.726,40.917,1.4,46.086,1.4,51.882S6.8,62.847,16.516,66.607c1.723.627,3.525,1.253,5.4,1.8-.47,1.88-.862,3.759-1.175,5.561C19.1,84.308,20.9,91.592,25.915,94.411a9.73,9.73,0,0,0,5.013,1.253c5.561,0,12.532-4.073,19.5-10.887,7.049,6.814,14.02,10.887,19.5,10.887a9.729,9.729,0,0,0,5.013-1.253c5.013-2.9,6.814-10.182,5.169-20.442-.313-1.8-.7-3.681-1.175-5.561a54.621,54.621,0,0,0,5.4-1.8c9.79-3.759,15.116-8.929,15.116-14.725S94.134,40.917,84.344,37.158ZM72.752,13.269c3.211,1.88,4.308,7.676,2.976,15.9a47.159,47.159,0,0,1-1.1,5.169A93.049,93.049,0,0,0,61.708,32.38,113.006,113.006,0,0,0,53.563,22.2c5.8-5.718,11.67-9.634,16.448-9.634a5.291,5.291,0,0,1,2.741.7ZM63.98,59.715c-1.41,2.506-3.055,5.013-4.778,7.519-2.9.235-5.8.313-8.772.313-3.055,0-5.953-.078-8.772-.313q-2.585-3.759-4.7-7.519c-1.488-2.585-2.9-5.248-4.151-7.832,1.253-2.585,2.663-5.248,4.151-7.832,1.41-2.506,3.055-5.013,4.778-7.519,2.9-.235,5.8-.313,8.772-.313,3.055,0,5.953.078,8.772.313q2.585,3.759,4.7,7.519c1.488,2.585,2.9,5.248,4.151,7.832C66.8,54.467,65.468,57.052,63.98,59.715Zm6.5-2.585c1.175,2.741,2.115,5.4,2.976,8.067-2.663.627-5.483,1.1-8.459,1.488.94-1.488,1.958-3.055,2.82-4.7.94-1.645,1.8-3.29,2.663-4.856ZM50.43,78.355c-1.88-2.036-3.681-4.229-5.4-6.5,1.8.078,3.6.157,5.4.157s3.6-.078,5.4-.157C54.111,74.126,52.31,76.319,50.43,78.355ZM35.862,66.607c-2.976-.392-5.8-.862-8.459-1.488.862-2.585,1.8-5.326,2.976-8.067.862,1.566,1.723,3.211,2.663,4.778C33.982,63.552,34.922,65.04,35.862,66.607ZM30.379,46.635c-1.175-2.741-2.115-5.4-2.976-8.067,2.663-.627,5.483-1.1,8.459-1.488-.94,1.488-1.958,3.055-2.82,4.7C32.1,43.423,31.241,45.068,30.379,46.635ZM50.43,25.409c1.88,2.036,3.681,4.229,5.4,6.5-1.8-.078-3.6-.157-5.4-.157s-3.6.078-5.4.157c1.723-2.271,3.525-4.464,5.4-6.5ZM67.817,41.857,65,37.158c2.976.392,5.8.862,8.459,1.488-.862,2.585-1.8,5.326-2.976,8.067C69.619,45.068,68.757,43.423,67.817,41.857ZM25.132,29.169c-1.331-8.224-.235-14.02,2.976-15.9a5.291,5.291,0,0,1,2.741-.7c4.7,0,10.574,3.838,16.448,9.634A102.956,102.956,0,0,0,39.151,32.38a106.483,106.483,0,0,0-12.923,1.958c-.47-1.8-.783-3.525-1.1-5.169ZM5.786,51.882c0-3.681,4.464-7.6,12.3-10.5A46.96,46.96,0,0,1,23.1,39.742a114.16,114.16,0,0,0,4.7,12.218A98.7,98.7,0,0,0,23.1,64.1C12.287,60.968,5.786,56.268,5.786,51.882ZM28.108,90.5C24.9,88.615,23.8,82.82,25.132,74.6a47.161,47.161,0,0,1,1.1-5.169,93.049,93.049,0,0,0,12.923,1.958A113.007,113.007,0,0,0,47.3,81.566C41.5,87.284,35.627,91.2,30.849,91.2a5.291,5.291,0,0,1-2.741-.7Zm47.62-15.9c1.331,8.224.235,14.02-2.976,15.9a5.291,5.291,0,0,1-2.741.7c-4.7,0-10.574-3.838-16.448-9.634a102.958,102.958,0,0,0,8.146-10.182,106.484,106.484,0,0,0,12.923-1.958C75.1,71.228,75.415,72.951,75.728,74.6Zm7.049-12.218a46.958,46.958,0,0,1-5.013,1.645,114.162,114.162,0,0,0-4.7-12.218,98.7,98.7,0,0,0,4.7-12.14C88.573,42.8,95.074,47.5,95.074,51.882,95.074,55.563,90.531,59.48,82.777,62.377Z" transform="translate(0 0)"/></g></g></svg>