<svg xmlns="http://www.w3.org/2000/svg" xmlns:xlink="http://www.w3.org/1999/xlink" viewBox="546 300 100 100"><defs><style>.a{clip-path:url(#b);}.b{fill:#fc4415;fill-rule:evenodd;}</style><clipPath id="b"><rect x="546" y="300" width="100" height="100"/></clipPath></defs><g id="a" class="a"><path class="b" d="M1.219,53.037a5.1,5.1,0,0,0,.3,1.489,18.3,18.3,0,0,0,3.966,7.129,47,47,0,0,0,8.793,7.715c2.75,1.977,5.556,3.91,8.317,5.872.474.337.922.724,1.437,1.138-.443.239-.811.45-1.194.644a63.89,63.89,0,0,0-10.381,6.43,21.232,21.232,0,0,0-5.16,5.222c-2.14,3.38-2.9,6.98-1.3,10.824a6.39,6.39,0,0,0,2.178,2.81,3.22,3.22,0,0,0,1.069.552c.974.229,1.966.379,2.952.561l2.791,0a17.367,17.367,0,0,0,8.436-3.085,18.511,18.511,0,0,0,7.792-11.124A19.636,19.636,0,0,0,31.1,78.947c-.091-.317-.206-.627-.326-.933s-.26-.6-.426-.987l6.328-3.639.095.081c-.115.376-.237.752-.341,1.132a25.63,25.63,0,0,0-1.072,8.391A16.1,16.1,0,0,0,38.17,91.41a4.082,4.082,0,0,0,6.391.069,14.739,14.739,0,0,0,1.462-2.313c1.032-2.131,1.987-4.3,2.973-6.453l.172-.394c-.071,1.02-.154,1.915-.191,2.812a10.716,10.716,0,0,0,.5,4.123,2.847,2.847,0,0,0,2.411,2.141,3.032,3.032,0,0,0,2.26-.825,9.557,9.557,0,0,0,2.477-2.944c1.75-3.213,3.546-6.407,5.132-9.7,1.716-3.563,3.216-7.229,4.809-10.853l.263-.642c.376,1.479.639,2.928,1.122,4.3a40.629,40.629,0,0,0,2.013,4.655,1.392,1.392,0,0,1-.179,1.774c-2.076,2.5-4.117,5.037-6.159,7.568a17,17,0,0,0-1.278,1.738,3.406,3.406,0,0,0-.442,1.255,1.6,1.6,0,0,0,1.273,1.814,8.892,8.892,0,0,0,2.492.178A14.6,14.6,0,0,0,73.4,86.806a8.1,8.1,0,0,0,3.2-8.744,20.315,20.315,0,0,0-.872-2.829,1.045,1.045,0,0,1,.113-1.1,90.055,90.055,0,0,0,6.278-10.648,2.194,2.194,0,0,1,.282-.444,27.649,27.649,0,0,0,3.174,9.012c-.839.809-1.67,1.543-2.422,2.351a16.2,16.2,0,0,0-3.841,6.07,7.171,7.171,0,0,0-.426,3.134A2.641,2.641,0,0,0,82.144,86a14.819,14.819,0,0,0,8.846-5.453A7.17,7.17,0,0,0,92,74c-.173-.633-.378-1.256-.6-1.982.875-.271,1.728-.6,2.611-.8a23.143,23.143,0,0,1,13.531.791,10.212,10.212,0,0,1,5.9,5.127c1.508,3.11.675,6.061-2.257,8.026a5.028,5.028,0,0,0-.813.557.8.8,0,0,0-.189.617c.019.113.318.255.491.253a4.486,4.486,0,0,0,2.5-1.032,7.684,7.684,0,0,0,3.546-5.354l.058-.173-.071-1.5c-.029-.087.021-.172.015-.237a11.764,11.764,0,0,0-4.8-8,17.5,17.5,0,0,0-10.353-3.486A23.378,23.378,0,0,0,92.579,68.2c-.826.3-1.644.653-2.474.988-.111-.2-.231-.395-.329-.595-.852-1.745-1.885-3.413-2.113-5.414a12.119,12.119,0,0,1-.023-4.246c.325-1.352.748-2.681,1.147-4.015a.978.978,0,0,0-.595-1.381,2.627,2.627,0,0,0-.723-.237,11.141,11.141,0,0,0-4.759.353,1.363,1.363,0,0,0-1.076,1.081c-.07.351-.213.687-.312,1.033a25.827,25.827,0,0,1-1.356,4.275c-1.651,3.438-3.536,6.745-5.465,10.029-.209.354-.429.7-.692,1.132a14.836,14.836,0,0,1-1.619-4.18,12.829,12.829,0,0,1-.023-5.043c.312-1.248.72-2.473,1.1-3.7a.858.858,0,0,0-.434-1.2,2.554,2.554,0,0,0-.872-.339,10.716,10.716,0,0,0-4.928.4,1.331,1.331,0,0,0-.915,1,38.584,38.584,0,0,1-1.462,4.524c-2.553,5.853-5.18,11.677-7.8,17.5-.548,1.216-1.189,2.389-1.807,3.573a8.294,8.294,0,0,1-.58.846.69.69,0,0,1-.216-.439A12.118,12.118,0,0,1,54.3,81.9c.432-2.189.929-4.365,1.452-6.534.433-1.791.936-3.565,1.416-5.344a1.677,1.677,0,0,0-.264-1.653,2.472,2.472,0,0,0-3.112-.376l-.394.223.076-.635a9.893,9.893,0,0,0-.148-4.059,3.23,3.23,0,0,0-3.392-2.58,7.287,7.287,0,0,0-2.4.457A18.186,18.186,0,0,0,39.9,67.443a2.385,2.385,0,0,1-.7.6c-2.663,1.476-5.333,2.934-8,4.4L28.232,74.07c-.8-.76-1.521-1.549-2.343-2.218-2.51-2.047-5.06-4.043-7.587-6.067a29.905,29.905,0,0,1-6.071-6.038,10.807,10.807,0,0,1-2.108-5.886,13.814,13.814,0,0,1,2.11-7.7,29.523,29.523,0,0,1,7-7.664,64.894,64.894,0,0,1,9.211-6.11,69.48,69.48,0,0,1,14.125-6.234,39.043,39.043,0,0,1,15.614-1.775A16.043,16.043,0,0,1,64.2,26.126a6.2,6.2,0,0,1,3.155,3.42,8.552,8.552,0,0,1,.149,4.79,18.283,18.283,0,0,1-4.781,8.329A32.312,32.312,0,0,1,49.51,51.032a36.334,36.334,0,0,1-8.987,1.917,16.925,16.925,0,0,1-7.349-.885,9.56,9.56,0,0,1-4.049-2.749c-.2-.23-.449-.48-.816-.264a.7.7,0,0,0-.3.9,8.826,8.826,0,0,0,.7,1.692,9.636,9.636,0,0,0,3.206,3.035,15.683,15.683,0,0,0,7.97,2.188,40.1,40.1,0,0,0,12.566-1.6,30.829,30.829,0,0,0,15.079-9.1c3.411-3.8,5.847-8.091,6.369-13.271a12.845,12.845,0,0,0-1.2-7.311,13.216,13.216,0,0,0-5.766-5.637A24.41,24.41,0,0,0,55.581,17H51.615c-4.8,0-9.431,1.374-13.937,3.013a95.738,95.738,0,0,0-10,4.328C20.6,27.875,14.019,32.135,8.61,37.993a28.472,28.472,0,0,0-6.289,9.931c-.384,1.11-.748,2.3-1.023,3.448M26.921,84.516a14.628,14.628,0,0,1-5.206,10.126,11.843,11.843,0,0,1-5.956,2.973,4.371,4.371,0,0,1-2.479-.173,2.53,2.53,0,0,1-1.425-2.59,9.369,9.369,0,0,1,1.4-4.773,17.061,17.061,0,0,1,4.363-4.791,66.87,66.87,0,0,1,8.53-5.748l.224-.092a14.97,14.97,0,0,1,.549,5.068ZM50.075,66.681a30.963,30.963,0,0,1-.87,3.892,114.745,114.745,0,0,1-4.861,12.86,22.185,22.185,0,0,1-1.264,2.224,1.554,1.554,0,0,1-.26.307c-.532.526-1.036.5-1.305-.19a14.491,14.491,0,0,1-.671-2.5,13.245,13.245,0,0,1-.12-1.746,21.883,21.883,0,0,1,3.438-11.394A10.653,10.653,0,0,1,47.474,66.4a5.77,5.77,0,0,1,1.468-.65c.782-.22,1.263.142,1.133.926Zm15.8,20.126,5.678-6.629C71.786,82.64,67.6,87.554,65.872,86.807Zm18.134-4.461c-.4.23-.838.4-1.25.608-.376.2-.5,0-.512-.326a2.2,2.2,0,0,1,.086-.664,14.272,14.272,0,0,1,4.277-6.89L86.754,75a6.082,6.082,0,0,1-2.748,7.346Z" transform="translate(549.781 290)"/></g></svg>