<?xml version="1.0" encoding="utf-8"?>
<!-- Generator: Adobe Illustrator 16.0.0, SVG Export Plug-In . SVG Version: 6.00 Build 0)  -->
<!DOCTYPE svg PUBLIC "-//W3C//DTD SVG 1.1//EN" "http://www.w3.org/Graphics/SVG/1.1/DTD/svg11.dtd">
<svg version="1.1" id="Layer_1" xmlns="http://www.w3.org/2000/svg" xmlns:xlink="http://www.w3.org/1999/xlink" x="0px" y="0px"
	 width="77px" height="77px" viewBox="321.5 601.5 77 77" enable-background="new 321.5 601.5 77 77" xml:space="preserve">
<g id="a">
	<path fill="#FC4415" d="M321.5,634.189c0.021,0.412,0.103,0.819,0.243,1.206c0.623,2.142,1.721,4.116,3.212,5.774
		c2.104,2.372,4.498,4.471,7.122,6.249c2.227,1.602,4.501,3.167,6.737,4.757c0.383,0.272,0.747,0.586,1.163,0.923
		c-0.358,0.193-0.656,0.364-0.968,0.521c-2.961,1.464-5.777,3.208-8.408,5.208c-1.627,1.157-3.042,2.588-4.178,4.229
		c-1.734,2.739-2.35,5.654-1.053,8.768c0.361,0.911,0.972,1.699,1.764,2.275c0.257,0.203,0.551,0.354,0.865,0.447
		c0.79,0.186,1.593,0.307,2.391,0.454h2.262c2.457-0.219,4.813-1.08,6.833-2.497c3.169-2.096,5.425-5.316,6.311-9.012
		c0.707-2.73,0.675-5.601-0.093-8.315c-0.074-0.257-0.167-0.508-0.265-0.757c-0.096-0.246-0.21-0.485-0.345-0.799l5.125-2.947
		l0.077,0.065c-0.093,0.305-0.191,0.609-0.275,0.917c-0.665,2.201-0.958,4.499-0.869,6.797c0.106,2.441,0.895,4.805,2.278,6.818
		c1.121,1.441,3.198,1.702,4.639,0.582c0.198-0.154,0.378-0.331,0.538-0.525c0.451-0.587,0.848-1.215,1.184-1.874
		c0.835-1.726,1.609-3.482,2.408-5.227l0.139-0.319c-0.057,0.826-0.123,1.551-0.154,2.278c-0.084,1.128,0.055,2.262,0.407,3.339
		c0.229,0.926,1.004,1.616,1.953,1.734c0.676,0.039,1.338-0.203,1.83-0.668c0.824-0.65,1.506-1.463,2.006-2.385
		c1.418-2.603,2.873-5.189,4.156-7.857c1.391-2.887,2.605-5.855,3.895-8.791l0.213-0.52c0.305,1.197,0.518,2.371,0.91,3.482
		c0.463,1.289,1.008,2.549,1.629,3.771c0.305,0.451,0.244,1.057-0.145,1.438c-1.682,2.025-3.334,4.08-4.988,6.13
		c-0.375,0.447-0.721,0.917-1.035,1.406c-0.186,0.312-0.307,0.658-0.357,1.018c-0.105,0.687,0.348,1.336,1.031,1.469
		c0.662,0.144,1.342,0.192,2.018,0.146c2.27-0.167,4.443-0.984,6.26-2.355c2.271-1.577,3.309-4.411,2.592-7.083
		c-0.18-0.779-0.414-1.545-0.707-2.29c-0.141-0.29-0.105-0.637,0.092-0.893c1.893-2.754,3.59-5.636,5.086-8.624
		c0.062-0.127,0.139-0.249,0.229-0.359c0.428,2.564,1.297,5.035,2.572,7.3c-0.68,0.655-1.354,1.25-1.963,1.904
		c-1.393,1.385-2.455,3.066-3.111,4.916c-0.303,0.81-0.42,1.679-0.346,2.538c0.078,1.18,1.098,2.071,2.275,1.993
		c0.123-0.007,0.246-0.025,0.365-0.056c2.842-0.56,5.387-2.127,7.164-4.416c1.123-1.528,1.428-3.508,0.818-5.303
		c-0.141-0.513-0.307-1.018-0.486-1.605c0.709-0.22,1.4-0.486,2.115-0.648c3.637-0.884,7.453-0.661,10.961,0.641
		c2.08,0.695,3.799,2.19,4.777,4.152c1.221,2.52,0.547,4.91-1.828,6.502c-0.234,0.128-0.453,0.279-0.658,0.451
		c-0.119,0.138-0.174,0.318-0.152,0.5c0.016,0.092,0.258,0.206,0.398,0.204c0.744-0.062,1.451-0.354,2.023-0.836
		c1.543-0.956,2.594-2.54,2.871-4.336l0.049-0.141l-0.059-1.214c-0.023-0.071,0.018-0.141,0.012-0.192
		c-0.346-2.604-1.752-4.948-3.887-6.48c-2.422-1.812-5.361-2.802-8.387-2.823c-2.477-0.104-4.951,0.279-7.281,1.128
		c-0.668,0.243-1.332,0.529-2.004,0.8c-0.09-0.161-0.188-0.319-0.266-0.481c-0.691-1.413-1.527-2.764-1.713-4.385
		c-0.207-1.137-0.215-2.301-0.018-3.439c0.264-1.095,0.605-2.171,0.93-3.251c0.197-0.391,0.043-0.868-0.348-1.066
		c-0.043-0.021-0.088-0.039-0.135-0.053c-0.186-0.091-0.383-0.157-0.586-0.191c-1.291-0.186-2.605-0.087-3.855,0.286
		c-0.441,0.086-0.785,0.433-0.871,0.875c-0.057,0.285-0.172,0.557-0.254,0.836c-0.264,1.184-0.631,2.342-1.096,3.463
		c-1.338,2.785-2.865,5.464-4.428,8.123c-0.17,0.286-0.348,0.566-0.561,0.916c-0.605-1.055-1.049-2.197-1.311-3.385
		c-0.277-1.348-0.283-2.735-0.018-4.085c0.252-1.01,0.582-2.002,0.889-2.996c0.182-0.338,0.055-0.76-0.283-0.941
		c-0.023-0.012-0.045-0.021-0.068-0.031c-0.215-0.134-0.455-0.228-0.705-0.275c-1.338-0.204-2.705-0.092-3.992,0.324
		c-0.375,0.116-0.66,0.425-0.742,0.811c-0.318,1.244-0.713,2.468-1.182,3.665c-2.07,4.74-4.197,9.458-6.318,14.174
		c-0.445,0.985-0.965,1.936-1.465,2.895c-0.141,0.237-0.299,0.467-0.469,0.685c-0.1-0.093-0.164-0.22-0.176-0.354
		c-0.043-0.606-0.029-1.216,0.039-1.819c0.35-1.772,0.752-3.535,1.174-5.292c0.352-1.45,0.76-2.888,1.148-4.329
		c0.172-0.452,0.09-0.963-0.215-1.338c-0.66-0.689-1.715-0.817-2.52-0.305l-0.32,0.18l0.062-0.514
		c0.188-1.092,0.146-2.212-0.119-3.288c-0.262-1.287-1.438-2.182-2.748-2.09c-0.665,0.014-1.321,0.138-1.944,0.37
		c-2.469,1.039-4.607,2.732-6.185,4.896c-0.155,0.197-0.348,0.362-0.566,0.485c-2.157,1.195-4.32,2.377-6.48,3.563l-2.404,1.318
		c-0.648-0.615-1.232-1.255-1.898-1.797c-2.032-1.658-4.098-3.274-6.144-4.914c-1.866-1.385-3.522-3.033-4.918-4.89
		c-1.026-1.387-1.621-3.045-1.708-4.769c-0.057-2.201,0.538-4.371,1.709-6.235c1.508-2.389,3.427-4.49,5.669-6.208
		c2.341-1.859,4.838-3.514,7.461-4.949c3.614-2.103,7.452-3.796,11.44-5.048c4.076-1.333,8.379-1.821,12.648-1.438
		c1.701,0.146,3.357,0.628,4.873,1.415c1.18,0.557,2.096,1.551,2.555,2.771c0.41,1.254,0.453,2.601,0.121,3.879
		c-0.666,2.554-2.002,4.883-3.871,6.747c-2.959,3.102-6.635,5.429-10.703,6.777c-2.351,0.824-4.798,1.345-7.28,1.553
		c-2.012,0.203-4.046-0.042-5.952-0.717c-1.268-0.445-2.398-1.212-3.28-2.226c-0.161-0.186-0.363-0.389-0.661-0.215
		c-0.257,0.144-0.363,0.461-0.242,0.73c0.142,0.475,0.332,0.934,0.566,1.37c0.665,1.009,1.553,1.851,2.598,2.458
		c1.955,1.158,4.183,1.769,6.456,1.772c3.44,0.109,6.875-0.328,10.179-1.296c4.701-1.217,8.945-3.778,12.213-7.371
		c2.762-3.078,4.736-6.554,5.158-10.75c0.266-2.026-0.072-4.085-0.971-5.921c-1.043-1.972-2.676-3.568-4.672-4.567
		c-2.824-1.53-5.98-2.35-9.193-2.387h-3.213c-3.889,0-7.639,1.113-11.289,2.44c-2.764,1.014-5.469,2.185-8.1,3.506
		c-5.733,2.863-11.063,6.313-15.445,11.058c-2.239,2.298-3.973,5.038-5.094,8.043c-0.311,0.9-0.605,1.864-0.829,2.793
		 M342.318,659.687c-0.24,3.19-1.76,6.148-4.216,8.201c-1.345,1.248-3.019,2.084-4.824,2.409c-0.668,0.148-1.367,0.1-2.008-0.14
		c-0.795-0.379-1.261-1.225-1.154-2.099c0.022-1.366,0.414-2.703,1.134-3.865c0.919-1.508,2.119-2.826,3.534-3.881
		c2.18-1.728,4.49-3.284,6.909-4.656l0.182-0.075C342.256,656.915,342.406,658.303,342.318,659.687z M361.074,645.24
		c-0.168,1.065-0.404,2.118-0.708,3.153c-1.102,3.547-2.417,7.025-3.937,10.416c-0.306,0.619-0.648,1.222-1.023,1.801
		c-0.059,0.093-0.129,0.176-0.21,0.249c-0.431,0.426-0.839,0.405-1.058-0.154c-0.24-0.657-0.422-1.335-0.543-2.025
		c-0.063-0.468-0.097-0.94-0.098-1.413c0.058-3.274,1.022-6.469,2.785-9.229c0.643-1.207,1.563-2.243,2.684-3.024
		c0.369-0.231,0.77-0.408,1.189-0.526c0.631-0.18,1.022,0.114,0.918,0.749V645.24z M373.871,661.542l4.6-5.369
		c0.188,1.995-3.203,5.975-4.604,5.369H373.871z M388.559,657.929c-0.322,0.187-0.678,0.324-1.012,0.493
		c-0.307,0.162-0.404,0-0.416-0.264c-0.004-0.183,0.02-0.363,0.07-0.538c0.592-2.156,1.795-4.096,3.465-5.582l0.117-0.06
		c0.805,2.261-0.135,4.774-2.227,5.95H388.559z"/>
</g>
</svg>
