<svg xmlns="http://www.w3.org/2000/svg" viewBox="-3652 -3561 28 28"><defs><style>.a{fill:#808c9a;}</style></defs><path class="a" d="M17,31A14,14,0,1,1,31,17,14.016,14.016,0,0,1,17,31ZM17,6.111A10.889,10.889,0,1,0,27.889,17,10.9,10.9,0,0,0,17,6.111Zm2.434,11.863a.833.833,0,0,1,.686.4,1.773,1.773,0,0,1,0,1.946.841.841,0,0,1-.686.4.864.864,0,0,1-.717-.4,1.773,1.773,0,0,1,0-1.946.866.866,0,0,1,.717-.4m3.438-3.561A4.2,4.2,0,0,1,24,17.366a7.435,7.435,0,0,1-.258,2.024,4.971,4.971,0,0,1-.653,1.461,4.226,4.226,0,0,1-.975.988,5.072,5.072,0,0,1-1.066.624,5.3,5.3,0,0,1-1.114.3,8.122,8.122,0,0,1-.943.123l-.684.014-.548.016L17,22.936l-.759-.017-.548-.016-.684-.014a8.039,8.039,0,0,1-.943-.123,5.09,5.09,0,0,1-1.114-.3,4.961,4.961,0,0,1-1.064-.624,4.263,4.263,0,0,1-.977-.988,4.971,4.971,0,0,1-.653-1.461A7.435,7.435,0,0,1,10,17.366a4.192,4.192,0,0,1,1.128-2.952c-.082-.04-.087-.445-.012-1.216a7.233,7.233,0,0,1,.5-2.131,8.1,8.1,0,0,1,3.469,1.582A7.939,7.939,0,0,1,17,12.464a7.515,7.515,0,0,1,1.92.184,12.9,12.9,0,0,1,1.8-1.036,5.775,5.775,0,0,1,1.266-.456l.4-.09a7.2,7.2,0,0,1,.5,2.131c.078.772.073,1.176-.009,1.216m-5.84,7.82a9.3,9.3,0,0,0,3.817-.607,2.479,2.479,0,0,0,1.3-2.5,2.34,2.34,0,0,0-.823-1.826,1.855,1.855,0,0,0-.992-.487,7.876,7.876,0,0,0-1.717,0c-.77.062-1.3.09-1.58.09-.386,0-.8-.02-1.324-.061l-1.218-.076a3.746,3.746,0,0,0-.958.107,1.921,1.921,0,0,0-.856.425,2.336,2.336,0,0,0-.789,1.826,2.483,2.483,0,0,0,1.277,2.5,9.182,9.182,0,0,0,3.8.607M14.6,17.974a.831.831,0,0,1,.684.4,1.773,1.773,0,0,1,0,1.946.839.839,0,0,1-.684.4.867.867,0,0,1-.719-.4,1.773,1.773,0,0,1,0-1.946.865.865,0,0,1,.719-.4" transform="translate(-3655 -3564)"/></svg>