<svg xmlns="http://www.w3.org/2000/svg" viewBox="-2914 -3929 14 14">
  <path id="link" class="cls-1" d="M18.081,6.316a1.084,1.084,0,0,0-1.534,0l-1.7,1.7-.3-.3a3.136,3.136,0,0,0-4.322,0L6.112,11.824a3.061,3.061,0,0,0,0,4.322l.3.3-1.7,1.7a1.085,1.085,0,0,0,1.534,1.534l1.7-1.7.3.3a3.061,3.061,0,0,0,4.322,0l4.113-4.113a3.061,3.061,0,0,0,0-4.322l-.3-.3,1.7-1.7A1.085,1.085,0,0,0,18.081,6.316ZM15.154,12.64l-4.113,4.113a.913.913,0,0,1-1.254,0l-.3-.3.712-.712A1.085,1.085,0,0,0,8.661,14.2l-.712.712-.3-.3a.893.893,0,0,1,0-1.254l4.113-4.113a.893.893,0,0,1,1.254,0l.3.3-.712.712a1.085,1.085,0,0,0,1.534,1.534l.712-.712.3.3a.893.893,0,0,1,0,1.254Z" transform="translate(-2918.399 -3934.999)"/>
</svg>
