<?xml version="1.0" encoding="utf-8"?>
<!-- Generator: Adobe Illustrator 16.0.0, SVG Export Plug-In . SVG Version: 6.00 Build 0)  -->
<!DOCTYPE svg PUBLIC "-//W3C//DTD SVG 1.1//EN" "http://www.w3.org/Graphics/SVG/1.1/DTD/svg11.dtd" [
	<!ENTITY st0 "fill:#131822;">
	<!ENTITY st1 "fill:#FC4415;">
	<!ENTITY st2 "fill:#FFFFFF;">
	<!ENTITY st3 "fill:none;">
]>
<svg version="1.1" id="Layer_1" xmlns="http://www.w3.org/2000/svg" xmlns:xlink="http://www.w3.org/1999/xlink" x="0px" y="0px"
	 width="647.473px" height="107.938px" viewBox="0 0 647.473 107.938" style="enable-background:new 0 0 647.473 107.938;"
	 xml:space="preserve">
<rect x="-4.5" y="-4.5" style="&st0;" width="656.473" height="116.938"/>
<g>
	<polygon style="&st3;" points="571.952,17.521 571.865,5.637 508.145,5.727 508.234,17.611 530.483,17.521 533.348,17.521 
		533.348,82.64 546.728,82.64 546.75,17.521 	"/>
	<path style="&st3;" d="M132.244,53.036h-19.8v-14.3H99.129l0.059,63.563l13.229-0.088l0.026-37.091h21.114
		c15.166,0,27.691-11.544,29.463-26.385h-13.269C148.035,46.894,140.841,53.036,132.244,53.036z"/>
	<path style="&st3;" d="M132.244,23.687H118.17v8.368h25.781C142.549,27.251,137.857,23.687,132.244,23.687z"/>
	<path style="&st3;" d="M133.412,5.727H99.099l0.025,26.328h13.319V17.96h19.8c8.819,0,16.151,6.102,17.617,14.095h13.229
		C161.524,17.282,148.812,5.727,133.412,5.727z"/>
	<polygon style="&st3;" points="546.722,102.212 546.725,89.321 533.348,89.321 533.348,102.3 	"/>
	<path style="&st3;" d="M132.244,47.31c5.521,0,10.02-3.565,11.561-8.573H118.17v8.573H132.244z"/>
	<path style="&st1;" d="M99.099,5.727h34.313c15.4,0,28.112,11.555,29.678,26.328h5.735C167.24,14.121,151.975,0,133.412,0H99.099
		c-3.108,0-5.637,2.529-5.637,5.637v26.417h5.663L99.099,5.727z"/>
	<path style="&st1;" d="M168.801,38.736h-5.781c-1.771,14.841-14.297,26.385-29.463,26.385h-21.114l-0.026,37.091L99.188,102.3
		l-0.059-63.563h-5.668V102.3c0,3.108,2.529,5.638,5.637,5.638h13.433c3.056,0,5.639-2.581,5.639-5.638V70.848h15.387
		C151.884,70.848,167.003,56.744,168.801,38.736z"/>
	<path style="&st1;" d="M132.244,53.036c8.597,0,15.792-6.142,17.508-14.3h-5.947c-1.541,5.008-6.04,8.573-11.561,8.573H118.17
		v-8.573h-5.727v14.3H132.244z"/>
	<path style="&st1;" d="M132.244,17.96h-19.8v14.095h5.727v-8.368h14.073c5.613,0,10.306,3.564,11.708,8.368h5.909
		C148.395,24.062,141.063,17.96,132.244,17.96z"/>
	<path style="&st1;" d="M546.722,102.212l-13.374,0.088V89.321h-5.727V102.3c0,3.057,2.581,5.638,5.637,5.638h13.581
		c3.056,0,5.638-2.581,5.638-5.638V89.321h-5.752L546.722,102.212z"/>
	<path style="&st1;" d="M533.348,17.521h-2.864l-22.249,0.089l-0.09-11.884l63.721-0.089l0.087,11.884H546.75l-0.022,65.118h5.749
		V23.248h19.476c3.109,0,5.641-2.529,5.641-5.637V5.637c0-3.108-2.531-5.637-5.641-5.637h-63.808c-3.108,0-5.637,2.529-5.637,5.637
		v11.974c0,3.108,2.528,5.637,5.637,5.637h19.477V82.64h5.727V17.521z"/>
	<polygon style="&st2;" points="112.443,38.736 118.17,38.736 143.805,38.736 149.752,38.736 163.021,38.736 168.801,38.736 
		352.19,38.736 352.19,32.055 168.825,32.055 163.09,32.055 149.861,32.055 143.952,32.055 118.17,32.055 112.443,32.055 
		99.124,32.055 93.461,32.055 0,32.055 0,38.736 93.461,38.736 99.129,38.736 	"/>
	<polygon style="&st2;" points="647.473,82.64 552.477,82.64 546.728,82.64 533.348,82.64 527.621,82.64 131.714,82.64 
		131.714,89.321 527.621,89.321 533.348,89.321 546.725,89.321 552.477,89.321 647.473,89.321 	"/>
</g>
</svg>
