<svg xmlns="http://www.w3.org/2000/svg" viewBox="-3648 -3562.081 189.643 28.357">
  <defs>
    <style>
      .cls-1 {
        fill: #808c9a;
      }
    </style>
  </defs>
  <g id="social" transform="translate(-3756.276 -4263)">
    <path id="git" class="cls-1" d="M17,31A14,14,0,1,1,31,17,14.016,14.016,0,0,1,17,31ZM17,6.111A10.889,10.889,0,1,0,27.889,17,10.9,10.9,0,0,0,17,6.111Zm2.434,11.863a.833.833,0,0,1,.686.4,1.773,1.773,0,0,1,0,1.946.841.841,0,0,1-.686.4.864.864,0,0,1-.717-.4,1.773,1.773,0,0,1,0-1.946.866.866,0,0,1,.717-.4m3.438-3.561A4.2,4.2,0,0,1,24,17.366a7.435,7.435,0,0,1-.258,2.024,4.971,4.971,0,0,1-.653,1.461,4.226,4.226,0,0,1-.975.988,5.072,5.072,0,0,1-1.066.624,5.3,5.3,0,0,1-1.114.3,8.122,8.122,0,0,1-.943.123l-.684.014-.548.016L17,22.936l-.759-.017-.548-.016-.684-.014a8.039,8.039,0,0,1-.943-.123,5.09,5.09,0,0,1-1.114-.3,4.961,4.961,0,0,1-1.064-.624,4.263,4.263,0,0,1-.977-.988,4.971,4.971,0,0,1-.653-1.461A7.435,7.435,0,0,1,10,17.366a4.192,4.192,0,0,1,1.128-2.952c-.082-.04-.087-.445-.012-1.216a7.233,7.233,0,0,1,.5-2.131,8.1,8.1,0,0,1,3.469,1.582A7.939,7.939,0,0,1,17,12.464a7.515,7.515,0,0,1,1.92.184,12.9,12.9,0,0,1,1.8-1.036,5.775,5.775,0,0,1,1.266-.456l.4-.09a7.2,7.2,0,0,1,.5,2.131c.078.772.073,1.176-.009,1.216m-5.84,7.82a9.3,9.3,0,0,0,3.817-.607,2.479,2.479,0,0,0,1.3-2.5,2.34,2.34,0,0,0-.823-1.826,1.855,1.855,0,0,0-.992-.487,7.876,7.876,0,0,0-1.717,0c-.77.062-1.3.09-1.58.09-.386,0-.8-.02-1.324-.061l-1.218-.076a3.746,3.746,0,0,0-.958.107,1.921,1.921,0,0,0-.856.425,2.336,2.336,0,0,0-.789,1.826,2.483,2.483,0,0,0,1.277,2.5,9.182,9.182,0,0,0,3.8.607M14.6,17.974a.831.831,0,0,1,.684.4,1.773,1.773,0,0,1,0,1.946.839.839,0,0,1-.684.4.867.867,0,0,1-.719-.4,1.773,1.773,0,0,1,0-1.946.865.865,0,0,1,.719-.4" transform="translate(105.276 698.276)"/>
    <path id="linkedin" class="cls-1" d="M13.94,22.133H11.451V14.046H13.94v8.087ZM12.7,13.008q-1.346,0-1.347-1.244a1.152,1.152,0,0,1,.389-.882,1.35,1.35,0,0,1,.958-.362c.9,0,1.347.417,1.347,1.246S13.595,13.008,12.7,13.008Zm10.475,9.125h-2.54V17.622q0-1.762-1.246-1.762a1.264,1.264,0,0,0-1.3.985,1.285,1.285,0,0,0-.1.622v4.667h-2.54v-5.5c0-1.244-.019-2.108-.051-2.592h2.178l.156,1.087a2.825,2.825,0,0,1,2.54-1.3,2.667,2.667,0,0,1,2.1.907,3.818,3.818,0,0,1,.806,2.62v4.769ZM17,31A14,14,0,1,1,31,17,14.015,14.015,0,0,1,17,31ZM17,6.111A10.889,10.889,0,1,0,27.889,17,10.9,10.9,0,0,0,17,6.111Z" transform="translate(158.942 697.942)"/>
    <path id="twitter" class="cls-1" d="M22.1,14.329a2.452,2.452,0,0,0,1.109-1.406,6,6,0,0,1-1.626.6,2.41,2.41,0,0,0-1.839-.789,2.507,2.507,0,0,0-1.828.745,2.465,2.465,0,0,0-.744,1.8,1.789,1.789,0,0,0,.081.566,6.85,6.85,0,0,1-5.275-2.654,2.557,2.557,0,0,0-.353,1.276A2.47,2.47,0,0,0,12.763,16.6a2.817,2.817,0,0,1-1.136-.325,2.534,2.534,0,0,0,.568,1.652,2.5,2.5,0,0,0,1.461.891,2.7,2.7,0,0,1-.677.082,1.285,1.285,0,0,1-.46-.058,2.461,2.461,0,0,0,.893,1.272,2.521,2.521,0,0,0,1.489.513,4.972,4.972,0,0,1-3.166,1.08,4.081,4.081,0,0,1-.622-.026,7.052,7.052,0,0,0,3.922,1.14A6.958,6.958,0,0,0,18.957,21.7a7.03,7.03,0,0,0,2.515-2.749,7.456,7.456,0,0,0,.81-3.382v-.325a5.4,5.4,0,0,0,1.272-1.328,5.37,5.37,0,0,1-1.454.415ZM17,31a13.5,13.5,0,0,1-9.918-4.116A13.571,13.571,0,0,1,3,17,13.554,13.554,0,0,1,7.086,7.083,13.551,13.551,0,0,1,17,3a13.566,13.566,0,0,1,9.884,4.082A13.508,13.508,0,0,1,31,17a13.531,13.531,0,0,1-4.113,9.889A13.528,13.528,0,0,1,17,31ZM17,6.111A10.4,10.4,0,0,0,9.288,9.284,10.4,10.4,0,0,0,6.111,17a10.429,10.429,0,0,0,3.178,7.692A10.364,10.364,0,0,0,17,27.889a10.385,10.385,0,0,0,7.688-3.2A10.394,10.394,0,0,0,27.889,17a10.367,10.367,0,0,0-3.2-7.711A10.426,10.426,0,0,0,17,6.111Z" transform="translate(213 698)"/>
    <path id="email" class="cls-1" d="M16.757,10a6.927,6.927,0,0,0-6.9,7,7.058,7.058,0,0,0,11.01,5.79.779.779,0,0,0,.216-1.08.77.77,0,0,0-1.075-.205,5.391,5.391,0,0,1-3.057.94A5.449,5.449,0,0,1,11.506,17a5.254,5.254,0,1,1,10.5,0v.389a1.167,1.167,0,1,1-2.333,0V14.667c0-.429-.154-.778-.583-.778a.653.653,0,0,0-.616.468,2.9,2.9,0,0,0-1.571-.468A3.091,3.091,0,0,0,13.817,17a3.121,3.121,0,0,0,5.36,2.164,2.316,2.316,0,0,0,1.854.947,2.568,2.568,0,0,0,2.531-2.722V17A6.845,6.845,0,0,0,16.757,10Zm.194,8.556A1.556,1.556,0,1,1,18.507,17,1.558,1.558,0,0,1,16.952,18.556ZM17,31A14,14,0,1,1,31,17,14.015,14.015,0,0,1,17,31ZM17,6.111A10.889,10.889,0,1,0,27.889,17,10.9,10.9,0,0,0,17,6.111Z" transform="translate(266.919 697.919)"/>
  </g>
</svg>
