<svg xmlns="http://www.w3.org/2000/svg" viewBox="-3544.276 -3561.276 28 28"><defs><style>.a{fill:#808c9a;}</style></defs><path class="a" d="M22.1,14.329a2.452,2.452,0,0,0,1.109-1.406,6,6,0,0,1-1.626.6,2.41,2.41,0,0,0-1.839-.789,2.507,2.507,0,0,0-1.828.745,2.465,2.465,0,0,0-.744,1.8,1.789,1.789,0,0,0,.081.566,6.85,6.85,0,0,1-5.275-2.654,2.557,2.557,0,0,0-.353,1.276A2.47,2.47,0,0,0,12.763,16.6a2.817,2.817,0,0,1-1.136-.325,2.534,2.534,0,0,0,.568,1.652,2.5,2.5,0,0,0,1.461.891,2.7,2.7,0,0,1-.677.082,1.285,1.285,0,0,1-.46-.058,2.461,2.461,0,0,0,.893,1.272,2.521,2.521,0,0,0,1.489.513,4.972,4.972,0,0,1-3.166,1.08,4.081,4.081,0,0,1-.622-.026,7.052,7.052,0,0,0,3.922,1.14A6.958,6.958,0,0,0,18.957,21.7a7.03,7.03,0,0,0,2.515-2.749,7.456,7.456,0,0,0,.81-3.382v-.325a5.4,5.4,0,0,0,1.272-1.328,5.37,5.37,0,0,1-1.454.415ZM17,31a13.5,13.5,0,0,1-9.918-4.116A13.571,13.571,0,0,1,3,17,13.554,13.554,0,0,1,7.086,7.083,13.551,13.551,0,0,1,17,3a13.566,13.566,0,0,1,9.884,4.082A13.508,13.508,0,0,1,31,17a13.531,13.531,0,0,1-4.113,9.889A13.528,13.528,0,0,1,17,31ZM17,6.111A10.4,10.4,0,0,0,9.288,9.284,10.4,10.4,0,0,0,6.111,17a10.429,10.429,0,0,0,3.178,7.692A10.364,10.364,0,0,0,17,27.889a10.385,10.385,0,0,0,7.688-3.2A10.394,10.394,0,0,0,27.889,17a10.367,10.367,0,0,0-3.2-7.711A10.426,10.426,0,0,0,17,6.111Z" transform="translate(-3547.276 -3564.276)"/></svg>