<?xml version="1.0" encoding="utf-8"?>
<!-- Generator: Adobe Illustrator 16.0.0, SVG Export Plug-In . SVG Version: 6.00 Build 0)  -->
<!DOCTYPE svg PUBLIC "-//W3C//DTD SVG 1.1//EN" "http://www.w3.org/Graphics/SVG/1.1/DTD/svg11.dtd">
<svg version="1.1" id="Layer_1" xmlns="http://www.w3.org/2000/svg" xmlns:xlink="http://www.w3.org/1999/xlink" x="0px" y="0px"
	 width="77px" height="77px" viewBox="321.5 601.5 77 77" enable-background="new 321.5 601.5 77 77" xml:space="preserve">
<path fill="#808C9A" d="M359.332,620.75c-10.521,0.04-19.017,8.602-18.976,19.122c0,0.043,0,0.085,0.001,0.128
	c0.087,10.72,8.848,19.338,19.567,19.251c3.82-0.031,7.545-1.189,10.71-3.328c0.983-0.656,1.25-1.985,0.594-2.97
	c-0.652-0.971-1.969-1.229-2.939-0.576c-0.006,0.004-0.012,0.008-0.018,0.012c-2.476,1.692-5.406,2.594-8.406,2.585
	c-8.267-0.006-14.968-6.706-14.974-14.974c-0.312-7.974,5.9-14.689,13.874-15.001c7.973-0.312,14.69,5.9,15.001,13.874
	c0.015,0.375,0.015,0.751,0,1.127v1.069c0.052,1.772-1.343,3.25-3.114,3.302c-1.771,0.053-3.25-1.342-3.302-3.113
	c-0.001-0.062-0.001-0.125,0-0.188v-7.485c0-1.18-0.423-2.14-1.603-2.14c-0.785,0.013-1.473,0.534-1.694,1.287
	c-1.286-0.835-2.786-1.282-4.32-1.287c-4.695,0.008-8.494,3.819-8.487,8.515c0,0.014,0,0.027,0,0.041
	c0.016,4.74,3.871,8.57,8.611,8.555c2.31-0.008,4.519-0.946,6.128-2.604c1.191,1.626,3.083,2.592,5.1,2.604
	c3.899-0.05,7.021-3.251,6.972-7.151c-0.001-0.111-0.005-0.223-0.012-0.335V640c0.235-10.394-7.999-19.01-18.393-19.245
	C359.546,620.752,359.439,620.751,359.332,620.75z M359.865,644.279c-2.363,0-4.279-1.916-4.279-4.279s1.916-4.279,4.279-4.279
	s4.279,1.916,4.279,4.279l0,0c-0.004,2.361-1.916,4.274-4.276,4.279H359.865z M360,678.5c-21.263,0-38.5-17.237-38.5-38.5
	s17.237-38.5,38.5-38.5s38.5,17.237,38.5,38.5C398.478,661.254,381.254,678.478,360,678.5z M360,610.056
	c-16.538,0-29.945,13.406-29.945,29.944s13.407,29.945,29.945,29.945s29.944-13.407,29.944-29.945l0,0
	C389.928,623.469,376.531,610.072,360,610.056z"/>
</svg>
