<svg xmlns="http://www.w3.org/2000/svg" viewBox="-3490.357 -3561.357 28 28"><defs><style>.a{fill:#808c9a;}</style></defs><path class="a" d="M16.757,10a6.927,6.927,0,0,0-6.9,7,7.058,7.058,0,0,0,11.01,5.79.779.779,0,0,0,.216-1.08.77.77,0,0,0-1.075-.205,5.391,5.391,0,0,1-3.057.94A5.449,5.449,0,0,1,11.506,17a5.254,5.254,0,1,1,10.5,0v.389a1.167,1.167,0,1,1-2.333,0V14.667c0-.429-.154-.778-.583-.778a.653.653,0,0,0-.616.468,2.9,2.9,0,0,0-1.571-.468A3.091,3.091,0,0,0,13.817,17a3.121,3.121,0,0,0,5.36,2.164,2.316,2.316,0,0,0,1.854.947,2.568,2.568,0,0,0,2.531-2.722V17A6.845,6.845,0,0,0,16.757,10Zm.194,8.556A1.556,1.556,0,1,1,18.507,17,1.558,1.558,0,0,1,16.952,18.556ZM17,31A14,14,0,1,1,31,17,14.015,14.015,0,0,1,17,31ZM17,6.111A10.889,10.889,0,1,0,27.889,17,10.9,10.9,0,0,0,17,6.111Z" transform="translate(-3493.357 -3564.357)"/></svg>