<?xml version="1.0" encoding="utf-8"?>
<!-- Generator: Adobe Illustrator 16.0.0, SVG Export Plug-In . SVG Version: 6.00 Build 0)  -->
<!DOCTYPE svg PUBLIC "-//W3C//DTD SVG 1.1//EN" "http://www.w3.org/Graphics/SVG/1.1/DTD/svg11.dtd">
<svg version="1.1" id="Layer_1" xmlns="http://www.w3.org/2000/svg" xmlns:xlink="http://www.w3.org/1999/xlink" x="0px" y="0px"
	 width="77px" height="77px" viewBox="321.5 601.5 77 77" enable-background="new 321.5 601.5 77 77" xml:space="preserve">
<path fill="#808C9A" d="M360,678.5c-21.263,0-38.5-17.237-38.5-38.5s17.237-38.5,38.5-38.5s38.5,17.237,38.5,38.5
	C398.476,661.253,381.253,678.476,360,678.5z M360,610.056c-16.538,0-29.945,13.406-29.945,29.944s13.407,29.945,29.945,29.945
	s29.944-13.407,29.944-29.945l0,0C389.928,623.469,376.531,610.072,360,610.056z M366.693,642.679
	c0.774,0.023,1.484,0.438,1.887,1.1c1.066,1.625,1.066,3.728,0,5.352c-0.405,0.659-1.113,1.072-1.887,1.101
	c-0.801-0.012-1.542-0.425-1.972-1.101c-1.066-1.624-1.066-3.727,0-5.352C365.152,643.104,365.894,642.69,366.693,642.679
	 M376.148,632.886c2.052,2.199,3.165,5.113,3.102,8.121c0.021,1.879-0.219,3.752-0.709,5.565c-0.378,1.428-0.984,2.784-1.796,4.018
	c-0.738,1.048-1.645,1.966-2.682,2.718c-0.903,0.689-1.888,1.266-2.932,1.716c-0.988,0.386-2.015,0.662-3.063,0.825
	c-0.856,0.163-1.723,0.276-2.593,0.338l-1.881,0.039l-1.508,0.044L360,656.324l-2.087-0.047l-1.507-0.044l-1.882-0.038
	c-0.87-0.062-1.736-0.175-2.593-0.339c-1.049-0.158-2.077-0.435-3.063-0.824c-1.043-0.448-2.026-1.025-2.926-1.717
	c-1.038-0.752-1.946-1.671-2.688-2.717c-0.811-1.233-1.417-2.591-1.795-4.018c-0.492-1.816-0.73-3.692-0.709-5.574
	c-0.064-3.008,1.049-5.921,3.102-8.118c-0.225-0.11-0.239-1.224-0.032-3.344c0.158-2.013,0.622-3.988,1.375-5.86
	c3.48,0.67,6.751,2.161,9.539,4.351c1.729-0.383,3.497-0.554,5.267-0.509c1.774-0.06,3.549,0.111,5.28,0.506
	c1.57-1.081,3.226-2.034,4.95-2.85c1.107-0.552,2.275-0.973,3.481-1.254l1.1-0.247c0.754,1.872,1.218,3.848,1.375,5.86
	c0.215,2.123,0.201,3.233-0.024,3.344 M360.102,654.391c3.577,0.186,7.153-0.384,10.497-1.669c2.505-1.326,3.928-4.063,3.575-6.875
	c0.036-1.929-0.795-3.771-2.264-5.021c-0.752-0.713-1.704-1.181-2.728-1.34c-1.569-0.172-3.153-0.172-4.722,0
	c-2.118,0.171-3.575,0.248-4.346,0.248c-1.062,0-2.2-0.055-3.641-0.168l-3.35-0.209c-0.887-0.016-1.772,0.083-2.635,0.294
	c-0.87,0.186-1.68,0.588-2.354,1.169c-1.436,1.268-2.231,3.108-2.17,5.021c-0.361,2.797,1.034,5.528,3.512,6.875
	c3.326,1.289,6.888,1.857,10.45,1.67 M353.4,642.679c0.772,0.024,1.48,0.438,1.881,1.1c1.066,1.625,1.066,3.728,0,5.352
	c-0.403,0.658-1.109,1.071-1.881,1.101c-0.803-0.011-1.546-0.425-1.978-1.101c-1.066-1.624-1.066-3.727,0-5.352
	C351.854,643.102,352.598,642.688,353.4,642.679"/>
</svg>
