<?xml version="1.0" encoding="utf-8"?>
<!-- Generator: Adobe Illustrator 16.0.0, SVG Export Plug-In . SVG Version: 6.00 Build 0)  -->
<!DOCTYPE svg PUBLIC "-//W3C//DTD SVG 1.1//EN" "http://www.w3.org/Graphics/SVG/1.1/DTD/svg11.dtd">
<svg version="1.1" id="Layer_1" xmlns="http://www.w3.org/2000/svg" xmlns:xlink="http://www.w3.org/1999/xlink" x="0px" y="0px"
	 width="77px" height="77px" viewBox="321.5 601.5 77 77" enable-background="new 321.5 601.5 77 77" xml:space="preserve">
<path fill="#808C9A" d="M351.585,654.116h-6.845v-22.239h6.845V654.116z M348.175,629.022c-2.468,0-3.702-1.141-3.704-3.422
	c-0.015-0.926,0.376-1.812,1.069-2.425c0.714-0.665,1.66-1.022,2.635-0.996c2.476,0,3.704,1.147,3.704,3.427
	C351.879,627.887,350.637,629.022,348.175,629.022z M376.981,654.116h-6.985v-12.405c0-3.23-1.142-4.846-3.427-4.846
	c-1.692-0.09-3.203,1.055-3.574,2.709c-0.232,0.538-0.327,1.126-0.275,1.71v12.835h-6.985v-15.126c0-3.421-0.052-5.797-0.14-7.128
	h5.989l0.429,2.989c1.512-2.366,4.182-3.732,6.985-3.575c2.202-0.078,4.322,0.838,5.775,2.495c1.604,2.044,2.395,4.611,2.216,7.204
	v13.115L376.981,654.116z M360,678.5c-21.263,0-38.5-17.237-38.5-38.5s17.237-38.5,38.5-38.5s38.5,17.237,38.5,38.5
	C398.478,661.254,381.254,678.478,360,678.5z M360,610.056c-16.538,0-29.945,13.406-29.945,29.944s13.407,29.945,29.945,29.945
	s29.944-13.407,29.944-29.945l0,0C389.928,623.469,376.531,610.072,360,610.056z"/>
</svg>
