<svg xmlns="http://www.w3.org/2000/svg" viewBox="-3598.334 -3561.334 28 28"><defs><style>.a{fill:#808c9a;}</style></defs><path class="a" d="M13.94,22.133H11.451V14.046H13.94v8.087ZM12.7,13.008q-1.346,0-1.347-1.244a1.152,1.152,0,0,1,.389-.882,1.35,1.35,0,0,1,.958-.362c.9,0,1.347.417,1.347,1.246S13.595,13.008,12.7,13.008Zm10.475,9.125h-2.54V17.622q0-1.762-1.246-1.762a1.264,1.264,0,0,0-1.3.985,1.285,1.285,0,0,0-.1.622v4.667h-2.54v-5.5c0-1.244-.019-2.108-.051-2.592h2.178l.156,1.087a2.825,2.825,0,0,1,2.54-1.3,2.667,2.667,0,0,1,2.1.907,3.818,3.818,0,0,1,.806,2.62v4.769ZM17,31A14,14,0,1,1,31,17,14.015,14.015,0,0,1,17,31ZM17,6.111A10.889,10.889,0,1,0,27.889,17,10.9,10.9,0,0,0,17,6.111Z" transform="translate(-3601.334 -3564.334)"/></svg>