<?xml version="1.0" encoding="utf-8"?>
<!-- Generator: Adobe Illustrator 16.0.0, SVG Export Plug-In . SVG Version: 6.00 Build 0)  -->
<!DOCTYPE svg PUBLIC "-//W3C//DTD SVG 1.1//EN" "http://www.w3.org/Graphics/SVG/1.1/DTD/svg11.dtd">
<svg version="1.1" id="Layer_1" xmlns="http://www.w3.org/2000/svg" xmlns:xlink="http://www.w3.org/1999/xlink" x="0px" y="0px"
	 width="77px" height="77px" viewBox="321.5 601.5 77 77" enable-background="new 321.5 601.5 77 77" xml:space="preserve">
<path fill="#808C9A" d="M374.023,632.656c1.468-0.858,2.557-2.239,3.05-3.866c-1.402,0.764-2.908,1.319-4.471,1.65
	c-1.292-1.422-3.137-2.213-5.058-2.169c-1.885-0.033-3.701,0.707-5.026,2.048c-1.332,1.299-2.072,3.089-2.045,4.95
	c-0.01,0.527,0.066,1.053,0.223,1.556c-5.689-0.117-11.021-2.799-14.505-7.297c-0.626,1.064-0.961,2.274-0.971,3.508
	c-0.051,2.367,1.135,4.589,3.129,5.865c-1.093-0.074-2.157-0.378-3.124-0.894c-0.034,1.651,0.519,3.262,1.562,4.543
	c1.009,1.264,2.432,2.131,4.017,2.449c-0.608,0.153-1.234,0.229-1.862,0.226c-0.428,0.024-0.856-0.03-1.265-0.159
	c0.419,1.4,1.281,2.627,2.456,3.497c1.179,0.896,2.614,1.39,4.094,1.411c-2.472,1.965-5.548,3.015-8.706,2.969
	c-0.571,0.021-1.143-0.004-1.71-0.071c3.207,2.086,6.959,3.177,10.784,3.135c3.822,0.073,7.579-1.001,10.785-3.082
	c2.942-1.852,5.332-4.463,6.915-7.559c1.465-2.881,2.229-6.068,2.228-9.3v-0.894c1.366-1.008,2.549-2.244,3.497-3.652
	c-1.271,0.567-2.618,0.951-3.998,1.141V632.656z M360,678.495c-10.264,0.161-20.137-3.936-27.271-11.317
	c-7.303-7.141-11.36-16.964-11.224-27.178c-0.164-10.248,3.9-20.11,11.235-27.269c7.157-7.331,17.017-11.391,27.26-11.227
	c10.214-0.138,20.038,3.919,27.179,11.224c7.379,7.136,11.476,17.007,11.317,27.271c0.13,10.233-3.96,20.069-11.31,27.191
	C380.064,674.538,370.231,678.627,360,678.495z M360,610.059c-7.976-0.177-15.664,2.986-21.206,8.725
	c-5.746,5.542-8.913,13.235-8.736,21.216c-0.148,7.958,3.017,15.618,8.739,21.15c5.523,5.772,13.215,8.962,21.203,8.791
	c7.966,0.145,15.63-3.046,21.14-8.799c5.753-5.513,8.943-13.176,8.802-21.143c0.169-7.988-3.023-15.681-8.799-21.203
	C375.613,613.077,367.955,609.912,360,610.059z"/>
</svg>
