<svg xmlns="http://www.w3.org/2000/svg" xmlns:xlink="http://www.w3.org/1999/xlink" viewBox="896 648 77 77"><defs><style>.a{clip-path:url(#b);}.b{fill:#fc4415;}</style><clipPath id="b"><rect x="896" y="648" width="77" height="77"/></clipPath></defs><g id="a" class="a"><g transform="translate(899 651)"><path class="b" d="M35.145,0A35.145,35.145,0,1,0,70.29,35.145,35.248,35.248,0,0,0,35.145,0Zm24.25,21.087H49.2a55.547,55.547,0,0,0-4.92-12.652C50.609,10.895,56.232,15.112,59.395,21.087ZM35.145,7.029a47.191,47.191,0,0,1,6.678,14.058H28.467A51.674,51.674,0,0,1,35.145,7.029ZM8.083,42.174a22.66,22.66,0,0,1-1.054-7.029,22.66,22.66,0,0,1,1.054-7.029H20.033a47.1,47.1,0,0,0-.351,7.029c0,2.46.351,4.569.351,7.029ZM10.895,49.2H21.087a55.547,55.547,0,0,0,4.92,12.652C19.681,59.395,14.058,55.177,10.895,49.2ZM21.087,21.087H10.895A29.62,29.62,0,0,1,26.007,8.435,55.547,55.547,0,0,0,21.087,21.087ZM35.145,63.261A47.191,47.191,0,0,1,28.467,49.2H41.822A51.674,51.674,0,0,1,35.145,63.261Zm8.083-21.087H27.062a47.629,47.629,0,0,1-.7-7.029,47.629,47.629,0,0,1,.7-7.029H43.58a47.63,47.63,0,0,1,.7,7.029C44.282,37.6,43.58,39.714,43.228,42.174Zm1.054,19.681A49.861,49.861,0,0,0,49.2,49.2H59.395C56.232,55.177,50.609,59.395,44.282,61.855Zm6.326-19.681a47.1,47.1,0,0,0,.351-7.029c0-2.46-.351-4.569-.351-7.029H62.558a22.66,22.66,0,0,1,1.054,7.029,22.664,22.664,0,0,1-1.054,7.029Z"/></g></g></svg>