<?xml version="1.0" encoding="utf-8"?>
<!-- Generator: Adobe Illustrator 16.0.0, SVG Export Plug-In . SVG Version: 6.00 Build 0)  -->
<!DOCTYPE svg PUBLIC "-//W3C//DTD SVG 1.1//EN" "http://www.w3.org/Graphics/SVG/1.1/DTD/svg11.dtd">
<svg version="1.1" id="Layer_1" xmlns="http://www.w3.org/2000/svg" xmlns:xlink="http://www.w3.org/1999/xlink" x="0px" y="0px"
	 width="77px" height="77px" viewBox="321.5 601.5 77 77" enable-background="new 321.5 601.5 77 77" xml:space="preserve">
<g id="a">
	<g transform="translate(899 412.516)">
		<g>
			<path fill="#FC4415" d="M-676.366,166.124c-3.783-0.006-6.863-3.087-6.867-6.866v-50.211c0.004-3.783,3.084-6.864,6.867-6.869
				h62.728c3.785,0.002,6.868,3.083,6.872,6.868v50.211c-0.005,3.78-3.086,6.861-6.866,6.867H-676.366z M-676.84,159.256
				c0.001,0.259,0.214,0.471,0.474,0.471h62.728c0.261,0,0.474-0.212,0.474-0.472v-31.347h-63.675V159.256z M-613.16,121.51v-12.464
				c-0.001-0.26-0.214-0.473-0.475-0.473h-62.731h0.002c-0.261,0.001-0.474,0.214-0.475,0.475v12.462H-613.16z"/>
			<path fill="#FC4415" d="M-613.639,102.677c3.518,0.002,6.368,2.852,6.372,6.369v50.21c-0.005,3.516-2.852,6.361-6.367,6.367
				h-62.732c-3.515-0.006-6.363-2.852-6.367-6.367v-50.21c0.004-3.516,2.853-6.364,6.367-6.369H-613.639 M-677.339,122.01h64.679
				v-12.964c-0.002-0.537-0.436-0.972-0.974-0.973h-62.732c-0.537,0.002-0.971,0.436-0.973,0.973V122.01 M-676.366,160.227h62.732
				h-0.005c0.535-0.001,0.973-0.435,0.974-0.971v-31.848h-64.675v31.848C-677.338,159.794-676.903,160.227-676.366,160.227
				 M-613.638,101.677L-613.638,101.677h-62.729c-4.058,0.005-7.363,3.31-7.367,7.368v50.211c0.004,4.056,3.309,7.36,7.366,7.367
				h62.734c4.058-0.007,7.361-3.311,7.367-7.366v-50.211C-606.271,104.984-609.578,101.68-613.638,101.677L-613.638,101.677z
				 M-676.339,121.01v-11.964l62.706,0.027l-0.024,11.938H-676.339L-676.339,121.01z M-676.34,128.409h62.675v30.818h-62.675
				V128.409L-676.34,128.409z"/>
		</g>
		<g>
			<path fill="#FC4415" d="M-669.443,118.905c-2.249-0.005-4.079-1.839-4.08-4.087c0.004-2.257,1.837-4.087,4.087-4.087
				c1.099,0.001,2.124,0.428,2.895,1.202c0.771,0.773,1.194,1.801,1.191,2.893c-0.003,2.25-1.837,4.081-4.088,4.081
				C-669.438,118.905-669.443,118.905-669.443,118.905z"/>
			<path fill="#FC4415" d="M-669.436,111.231c0.002,0,0.004,0,0.006,0c1.98,0.002,3.584,1.612,3.58,3.593
				c-0.002,1.98-1.609,3.582-3.589,3.582c-0.001,0-0.003,0-0.004,0c-1.978-0.005-3.579-1.609-3.581-3.588c0-0.001,0-0.004,0-0.006
				C-673.02,112.832-671.415,111.231-669.436,111.231 M-669.436,110.231c-2.525,0-4.583,2.054-4.587,4.58
				c0.002,2.531,2.056,4.589,4.578,4.595c2.534,0,4.593-2.055,4.596-4.581c0.003-1.224-0.472-2.377-1.337-3.246
				s-2.016-1.347-3.241-1.349h-0.001H-669.436L-669.436,110.231z"/>
		</g>
		<g>
			<path fill="#FC4415" d="M-659.843,118.905c-2.254-0.001-4.086-1.835-4.085-4.088c0-2.252,1.833-4.085,4.084-4.086
				c2.255,0,4.088,1.833,4.09,4.084c0.001,2.253-1.831,4.087-4.084,4.09H-659.843z"/>
			<path fill="#FC4415" d="M-659.839,111.231c1.979,0,3.584,1.604,3.586,3.585c0.001,1.98-1.604,3.587-3.584,3.59
				c-0.001,0-0.003,0-0.005,0c-1.98-0.001-3.586-1.607-3.585-3.588c0-1.979,1.604-3.586,3.585-3.587
				C-659.842,111.231-659.84,111.231-659.839,111.231 M-659.839,110.231h-0.003c-2.528,0.001-4.585,2.059-4.585,4.587
				c-0.001,2.528,2.055,4.586,4.584,4.588c2.536-0.003,4.592-2.062,4.59-4.59C-655.255,112.287-657.313,110.231-659.839,110.231
				L-659.839,110.231z"/>
		</g>
		<g>
			<path fill="#FC4415" d="M-650.239,118.905c-2.25-0.003-4.083-1.836-4.086-4.087c0.002-2.254,1.836-4.087,4.088-4.087
				c1.095,0,2.121,0.426,2.892,1.199c0.771,0.773,1.195,1.8,1.194,2.892C-646.151,117.073-647.985,118.905-650.239,118.905
				L-650.239,118.905z"/>
			<path fill="#FC4415" d="M-650.237,111.231c0.001,0,0.002,0,0.003,0c1.979,0.001,3.585,1.608,3.583,3.591
				c0,1.98-1.607,3.584-3.588,3.584c-0.001,0-0.001,0-0.002,0c-1.979-0.002-3.583-1.608-3.585-3.588c0,0,0-0.001,0-0.002
				C-653.823,112.835-652.217,111.231-650.237,111.231 M-650.233,110.231L-650.233,110.231h-0.004c-2.528,0-4.586,2.056-4.588,4.584
				c0.002,2.53,2.059,4.588,4.584,4.591c2.532,0,4.59-2.056,4.591-4.583c0.001-1.225-0.475-2.378-1.341-3.245
				C-647.857,110.709-649.008,110.231-650.233,110.231L-650.233,110.231z"/>
		</g>
	</g>
</g>
<g id="a_1_">
	<g transform="translate(899 651)">
		<path fill="#FC4415" d="M-539-49.5c-21.263,0-38.5,17.237-38.5,38.5c0,21.263,17.237,38.499,38.5,38.499
			c21.262,0,38.5-17.236,38.5-38.499C-500.562-32.237-517.763-49.438-539-49.5z M-512.436-26.399h-11.167
			c-1.224-4.823-3.034-9.478-5.392-13.86C-522.061-37.564-515.9-32.945-512.436-26.399z M-539-41.799
			c3.274,4.693,5.747,9.897,7.316,15.4h-14.632C-544.669-31.873-542.202-37.065-539-41.799z M-568.646-3.3
			c-0.787-2.489-1.177-5.089-1.154-7.699c-0.023-2.612,0.367-5.211,1.154-7.701h13.09c-0.32,2.554-0.448,5.127-0.384,7.701
			c0,2.694,0.384,5.005,0.384,7.699H-568.646z M-565.565,4.397h11.165c1.223,4.822,3.034,9.478,5.39,13.859
			C-555.94,15.564-562.1,10.944-565.565,4.397z M-554.4-26.399h-11.165c3.774-6.375,9.616-11.265,16.555-13.86
			C-551.367-35.877-553.177-31.223-554.4-26.399z M-539,19.8c-3.275-4.692-5.747-9.898-7.316-15.402h14.63
			C-533.332,9.871-535.798,15.064-539,19.8z M-530.146-3.3h-17.709c-0.445-2.544-0.702-5.117-0.766-7.699
			c0.064-2.583,0.321-5.157,0.766-7.701h18.096c0.445,2.544,0.701,5.118,0.765,7.701C-528.99-8.311-529.759-5.994-530.146-3.3
			L-530.146-3.3z M-528.99,18.26c2.42-4.353,4.232-9.018,5.388-13.862h11.167C-515.9,10.944-522.061,15.564-528.99,18.26z
			 M-522.061-3.3c0.321-2.553,0.448-5.127,0.385-7.699c0-2.696-0.385-5.006-0.385-7.701h13.09c0.789,2.49,1.178,5.089,1.154,7.701
			c0.023,2.61-0.365,5.21-1.154,7.699H-522.061z"/>
	</g>
</g>
</svg>
