<svg xmlns="http://www.w3.org/2000/svg" xmlns:xlink="http://www.w3.org/1999/xlink" viewBox="896 547 77 77"><defs><style>.a{clip-path:url(#b);}.b{fill:#fc4415;stroke:#fc4415;}</style><clipPath id="b"><rect x="896" y="547" width="77" height="77"/></clipPath></defs><g id="a" class="a"><g transform="translate(898 548.65)"><path class="b" d="M70.476,50.806H62.669V36.749a3.14,3.14,0,0,0-3.132-3.132H39.846V23.143H47.5a3.106,3.106,0,0,0,3.132-2.967V3.482A3.14,3.14,0,0,0,47.5.35H25.94a3.14,3.14,0,0,0-3.132,3.132V20.041a3.14,3.14,0,0,0,3.132,3.132H33.6V33.647H13.757a3.14,3.14,0,0,0-3.132,3.132V50.836H3.132A3.14,3.14,0,0,0,0,53.968V70.691a3.14,3.14,0,0,0,3.132,3.132h21.4a3.378,3.378,0,0,0,3.282-3.132V53.938a3.14,3.14,0,0,0-3.132-3.132H16.873V39.716H56.555V50.806H48.9a3.14,3.14,0,0,0-3.132,3.132V70.661A3.14,3.14,0,0,0,48.9,73.793H70.3a3.378,3.378,0,0,0,3.282-3.132V53.938A3.115,3.115,0,0,0,70.476,50.806ZM29.072,6.449H44.536V17.074H29.072Zm-7.493,61.23H6.1V57.054H21.564V67.679Zm45.765,0H51.879V57.054H67.344V67.679Z"/></g></g></svg>