<svg xmlns="http://www.w3.org/2000/svg" xmlns:xlink="http://www.w3.org/1999/xlink" viewBox="671 434 100 100"><defs><style>.a{clip-path:url(#b);}.b{fill:none;stroke:#fc4415;stroke-width:6px;}</style><clipPath id="b"><rect x="671" y="434" width="100" height="100"/></clipPath></defs><g id="a" class="a"><g transform="translate(680.999 431.173)"><path class="b" d="M.869,91.408H15.494a.87.87,0,0,0,.838-.637L20.6,75.4H37.154L41.781,90.79a.869.869,0,0,0,.832.619H57.8a.869.869,0,0,0,.869-.869.856.856,0,0,0-.077-.359L39.279,27.9a.869.869,0,0,0-.83-.612H19.936a.869.869,0,0,0-.831.615L.038,90.285a.869.869,0,0,0,.831,1.123ZM34.6,63.106H23.118l3.394-12.131c.616-2.186,1.2-4.773,1.762-7.274q.193-.862.382-1.69c.746,3,1.565,6.234,2.388,8.973Z" transform="translate(0 -4.866)"/><path class="b" d="M185.657,76.551a.869.869,0,0,0-.869.869v45.261a.869.869,0,0,0,.869.869h14.069a.869.869,0,0,0,.869-.869V77.42a.869.869,0,0,0-.869-.869Z" transform="translate(-120.56 -37.008)"/><path class="b" d="M191.9,35.727c4.9,0,8.459-3.324,8.459-7.923-.107-4.7-3.547-7.977-8.366-7.977a8.467,8.467,0,0,0-6.151,2.391,7.7,7.7,0,0,0-2.123,5.605,7.568,7.568,0,0,0,2.127,5.506A8.341,8.341,0,0,0,191.9,35.727Z" transform="translate(-119.86)"/></g></g></svg>