<?xml version="1.0" encoding="utf-8"?>
<!-- Generator: Adobe Illustrator 16.0.0, SVG Export Plug-In . SVG Version: 6.00 Build 0)  -->
<!DOCTYPE svg PUBLIC "-//W3C//DTD SVG 1.1//EN" "http://www.w3.org/Graphics/SVG/1.1/DTD/svg11.dtd">
<svg version="1.1" id="Layer_1" xmlns="http://www.w3.org/2000/svg" xmlns:xlink="http://www.w3.org/1999/xlink" x="0px" y="0px"
	 width="77px" height="77px" viewBox="321.5 601.5 77 77" enable-background="new 321.5 601.5 77 77" xml:space="preserve">
<g id="a">
	<g transform="translate(899 412.516)">
		<g>
			<path fill="#FC4415" d="M-676.366,166.124c-3.783-0.006-6.863-3.087-6.867-6.866v-50.211c0.004-3.783,3.084-6.864,6.867-6.869
				h62.728c3.785,0.002,6.868,3.083,6.872,6.868v50.211c-0.005,3.78-3.086,6.861-6.866,6.867H-676.366z M-676.84,159.256
				c0.001,0.259,0.214,0.471,0.474,0.471h62.728c0.261,0,0.474-0.212,0.474-0.472v-31.347h-63.675V159.256z M-613.16,121.51v-12.464
				c-0.001-0.26-0.214-0.473-0.475-0.473h-62.731h0.002c-0.261,0.001-0.474,0.214-0.475,0.475v12.462H-613.16z"/>
			<path fill="#FC4415" d="M-613.639,102.677c3.518,0.002,6.368,2.852,6.372,6.369v50.21c-0.005,3.516-2.852,6.361-6.367,6.367
				h-62.732c-3.515-0.006-6.363-2.852-6.367-6.367v-50.21c0.004-3.516,2.853-6.364,6.367-6.369H-613.639 M-677.339,122.01h64.679
				v-12.964c-0.002-0.537-0.436-0.972-0.974-0.973h-62.732c-0.537,0.002-0.971,0.436-0.973,0.973V122.01 M-676.366,160.227h62.732
				h-0.005c0.535-0.001,0.973-0.435,0.974-0.971v-31.848h-64.675v31.848C-677.338,159.794-676.903,160.227-676.366,160.227
				 M-613.638,101.677L-613.638,101.677h-62.729c-4.058,0.005-7.363,3.31-7.367,7.368v50.211c0.004,4.056,3.309,7.36,7.366,7.367
				h62.734c4.058-0.007,7.361-3.311,7.367-7.366v-50.211C-606.271,104.984-609.578,101.68-613.638,101.677L-613.638,101.677z
				 M-676.339,121.01v-11.964l62.706,0.027l-0.024,11.938H-676.339L-676.339,121.01z M-676.34,128.409h62.675v30.818h-62.675
				V128.409L-676.34,128.409z"/>
		</g>
		<g>
			<path fill="#FC4415" d="M-669.443,118.905c-2.249-0.005-4.079-1.839-4.08-4.087c0.004-2.257,1.837-4.087,4.087-4.087
				c1.099,0.001,2.124,0.428,2.895,1.202c0.771,0.773,1.194,1.801,1.191,2.893c-0.003,2.25-1.837,4.081-4.088,4.081
				C-669.438,118.905-669.443,118.905-669.443,118.905z"/>
			<path fill="#FC4415" d="M-669.436,111.231c0.002,0,0.004,0,0.006,0c1.98,0.002,3.584,1.612,3.58,3.593
				c-0.002,1.98-1.609,3.582-3.589,3.582c-0.001,0-0.003,0-0.004,0c-1.978-0.005-3.579-1.609-3.581-3.588c0-0.001,0-0.004,0-0.006
				C-673.02,112.832-671.415,111.231-669.436,111.231 M-669.436,110.231c-2.525,0-4.583,2.054-4.587,4.58
				c0.002,2.531,2.056,4.589,4.578,4.595c2.534,0,4.593-2.055,4.596-4.581c0.003-1.224-0.472-2.377-1.337-3.246
				s-2.016-1.347-3.241-1.349h-0.001H-669.436L-669.436,110.231z"/>
		</g>
		<g>
			<path fill="#FC4415" d="M-659.843,118.905c-2.254-0.001-4.086-1.835-4.085-4.088c0-2.252,1.833-4.085,4.084-4.086
				c2.255,0,4.088,1.833,4.09,4.084c0.001,2.253-1.831,4.087-4.084,4.09H-659.843z"/>
			<path fill="#FC4415" d="M-659.839,111.231c1.979,0,3.584,1.604,3.586,3.585c0.001,1.98-1.604,3.587-3.584,3.59
				c-0.001,0-0.003,0-0.005,0c-1.98-0.001-3.586-1.607-3.585-3.588c0-1.979,1.604-3.586,3.585-3.587
				C-659.842,111.231-659.84,111.231-659.839,111.231 M-659.839,110.231h-0.003c-2.528,0.001-4.585,2.059-4.585,4.587
				c-0.001,2.528,2.055,4.586,4.584,4.588c2.536-0.003,4.592-2.062,4.59-4.59C-655.255,112.287-657.313,110.231-659.839,110.231
				L-659.839,110.231z"/>
		</g>
		<g>
			<path fill="#FC4415" d="M-650.239,118.905c-2.25-0.003-4.083-1.836-4.086-4.087c0.002-2.254,1.836-4.087,4.088-4.087
				c1.095,0,2.121,0.426,2.892,1.199c0.771,0.773,1.195,1.8,1.194,2.892C-646.151,117.073-647.985,118.905-650.239,118.905
				L-650.239,118.905z"/>
			<path fill="#FC4415" d="M-650.237,111.231c0.001,0,0.002,0,0.003,0c1.979,0.001,3.585,1.608,3.583,3.591
				c0,1.98-1.607,3.584-3.588,3.584c-0.001,0-0.001,0-0.002,0c-1.979-0.002-3.583-1.608-3.585-3.588c0,0,0-0.001,0-0.002
				C-653.823,112.835-652.217,111.231-650.237,111.231 M-650.233,110.231L-650.233,110.231h-0.004c-2.528,0-4.586,2.056-4.588,4.584
				c0.002,2.53,2.059,4.588,4.584,4.591c2.532,0,4.59-2.056,4.591-4.583c0.001-1.225-0.475-2.378-1.341-3.245
				C-647.857,110.709-649.008,110.231-650.233,110.231L-650.233,110.231z"/>
		</g>
	</g>
</g>
<g>
	<path fill="none" d="M350.3,630.789c-0.269,1.142-0.544,2.253-0.83,3.268l-2.387,8.532h6.634l-2.498-8.515
		C350.91,633.043,350.6,631.924,350.3,630.789z"/>
	<path fill="#FC4415" d="M343.418,615.652l-15.224,49.811l11.199-0.017l3.589-12.929h14.864l3.888,12.93h11.645l-15.441-49.795
		H343.418z M344.462,644.577l3.094-11.059c0.493-1.746,0.959-3.819,1.411-5.825l1.237-5.431l1.006,4.044
		c0.576,2.319,1.247,4.978,1.915,7.2l3.248,11.069H344.462z"/>
	<rect x="379.968" y="629.478" fill="#FC4415" width="10.778" height="35.968"/>
	<path fill="#FC4415" d="M381.108,622.774c1.062,1.049,2.495,1.636,4.016,1.636l0.137-0.001c3.46,0,5.859-2.223,5.859-5.405
		c-0.073-3.25-2.39-5.448-5.763-5.448l-0.203-0.003c-1.528,0-2.975,0.587-4.071,1.653c-0.942,0.988-1.468,2.374-1.414,3.775
		C379.626,620.428,380.15,621.785,381.108,622.774z"/>
</g>
</svg>
