<svg xmlns="http://www.w3.org/2000/svg" xmlns:xlink="http://www.w3.org/1999/xlink" viewBox="996 547 77 77"><defs><style>.a{clip-path:url(#b);}.b{fill:#fc4415;stroke:#fc4415;}</style><clipPath id="b"><rect x="996" y="547" width="77" height="77"/></clipPath></defs><g id="a" class="a"><path class="b" d="M88.624,19.234a3.375,3.375,0,0,0-1.84-3L55.52.271a2.375,2.375,0,0,0-2.2,0L21.928,16.443a3.374,3.374,0,0,0-1.829,3l.059,36.567a2.39,2.39,0,0,0,1.312,2.134l31.358,16.1a3.374,3.374,0,0,0,3.087,0L87.366,58.042a2.388,2.388,0,0,0,1.312-2.134ZM54.419,5.092l10.644,5.534L61.086,12.7l-6.655,3.376-10.559-5.5Zm0,34.887,10.692,5.564-10.692,5.42-10.7-5.42ZM40.878,41.522V28.307l11.147-5.651V35.728ZM36.094,60.2,24.943,54.545V41.282l11.151,5.653Zm0-30.89V41.57L24.943,35.917V22.656l11.151,5.651Zm-8.3-10.576,10.7-5.561L49.18,18.732,38.488,24.155ZM52.025,55.908v12.47L40.878,62.725V49.466l11.147,5.651Zm15.931,4.184v2.634L56.81,68.379V55.117l11.146-5.651Zm0-18.463-11.146-5.8V22.76l11.146,5.653Zm-8.3-22.792,10.693-5.563,10.7,5.563-10.7,5.423Zm24.237,35.6L72.741,60.094V47.039l11.151-5.653Zm0-18.42L72.741,41.674V28.413l9.65-4.894,1.5-.761Z" transform="translate(980.043 548.134)"/></g></svg>