<svg xmlns="http://www.w3.org/2000/svg" xmlns:xlink="http://www.w3.org/1999/xlink" viewBox="796 446 77 77"><defs><style>.a{clip-path:url(#b);}.b{fill:#fc4415;}</style><clipPath id="b"><rect x="796" y="446" width="77" height="77"/></clipPath></defs><g id="a" class="a"><g transform="translate(796 446)"><path class="b" d="M38.5,0A38.5,38.5,0,1,0,77,38.5,38.5,38.5,0,0,0,38.5,0Zm0,69.608A31.108,31.108,0,1,1,69.608,38.5,31.117,31.117,0,0,1,38.5,69.608Z"/><path class="b" d="M122,160.352l25.179-13.51L160.626,121.6l-25.242,13.51Zm19.313-23.1a3.727,3.727,0,1,1-3.727,3.727A3.666,3.666,0,0,1,141.313,137.249Z" transform="translate(-102.813 -102.476)"/></g></g></svg>