<?xml version="1.0" encoding="utf-8"?>
<!-- Generator: Adobe Illustrator 16.0.0, SVG Export Plug-In . SVG Version: 6.00 Build 0)  -->
<!DOCTYPE svg PUBLIC "-//W3C//DTD SVG 1.1//EN" "http://www.w3.org/Graphics/SVG/1.1/DTD/svg11.dtd">
<svg version="1.1" id="Layer_1" xmlns="http://www.w3.org/2000/svg" xmlns:xlink="http://www.w3.org/1999/xlink" x="0px" y="0px"
	 width="77px" height="77px" viewBox="321.5 601.5 77 77" enable-background="new 321.5 601.5 77 77" xml:space="preserve">
<g id="a">
	<g transform="translate(899 412.516)">
		<g>
			<path fill="#FC4415" d="M-676.366,166.124c-3.783-0.006-6.863-3.087-6.867-6.866v-50.211c0.004-3.783,3.084-6.864,6.867-6.869
				h62.728c3.785,0.002,6.868,3.083,6.872,6.868v50.211c-0.005,3.78-3.086,6.861-6.866,6.867H-676.366z M-676.84,159.256
				c0.001,0.259,0.214,0.471,0.474,0.471h62.728c0.261,0,0.474-0.212,0.474-0.472v-31.347h-63.675V159.256z M-613.16,121.51v-12.464
				c-0.001-0.26-0.214-0.473-0.475-0.473h-62.731h0.002c-0.261,0.001-0.474,0.214-0.475,0.475v12.462H-613.16z"/>
			<path fill="#FC4415" d="M-613.639,102.677c3.518,0.002,6.368,2.852,6.372,6.369v50.21c-0.005,3.516-2.852,6.361-6.367,6.367
				h-62.732c-3.515-0.006-6.363-2.852-6.367-6.367v-50.21c0.004-3.516,2.853-6.364,6.367-6.369H-613.639 M-677.339,122.01h64.679
				v-12.964c-0.002-0.537-0.436-0.972-0.974-0.973h-62.732c-0.537,0.002-0.971,0.436-0.973,0.973V122.01 M-676.366,160.227h62.732
				h-0.005c0.535-0.001,0.973-0.435,0.974-0.971v-31.848h-64.675v31.848C-677.338,159.794-676.903,160.227-676.366,160.227
				 M-613.638,101.677L-613.638,101.677h-62.729c-4.058,0.005-7.363,3.31-7.367,7.368v50.211c0.004,4.056,3.309,7.36,7.366,7.367
				h62.734c4.058-0.007,7.361-3.311,7.367-7.366v-50.211C-606.271,104.984-609.578,101.68-613.638,101.677L-613.638,101.677z
				 M-676.339,121.01v-11.964l62.706,0.027l-0.024,11.938H-676.339L-676.339,121.01z M-676.34,128.409h62.675v30.818h-62.675
				V128.409L-676.34,128.409z"/>
		</g>
		<g>
			<path fill="#FC4415" d="M-669.443,118.905c-2.249-0.005-4.079-1.839-4.08-4.087c0.004-2.257,1.837-4.087,4.087-4.087
				c1.099,0.001,2.124,0.428,2.895,1.202c0.771,0.773,1.194,1.801,1.191,2.893c-0.003,2.25-1.837,4.081-4.088,4.081
				C-669.438,118.905-669.443,118.905-669.443,118.905z"/>
			<path fill="#FC4415" d="M-669.436,111.231c0.002,0,0.004,0,0.006,0c1.98,0.002,3.584,1.612,3.58,3.593
				c-0.002,1.98-1.609,3.582-3.589,3.582c-0.001,0-0.003,0-0.004,0c-1.978-0.005-3.579-1.609-3.581-3.588c0-0.001,0-0.004,0-0.006
				C-673.02,112.832-671.415,111.231-669.436,111.231 M-669.436,110.231c-2.525,0-4.583,2.054-4.587,4.58
				c0.002,2.531,2.056,4.589,4.578,4.595c2.534,0,4.593-2.055,4.596-4.581c0.003-1.224-0.472-2.377-1.337-3.246
				s-2.016-1.347-3.241-1.349h-0.001H-669.436L-669.436,110.231z"/>
		</g>
		<g>
			<path fill="#FC4415" d="M-659.843,118.905c-2.254-0.001-4.086-1.835-4.085-4.088c0-2.252,1.833-4.085,4.084-4.086
				c2.255,0,4.088,1.833,4.09,4.084c0.001,2.253-1.831,4.087-4.084,4.09H-659.843z"/>
			<path fill="#FC4415" d="M-659.839,111.231c1.979,0,3.584,1.604,3.586,3.585c0.001,1.98-1.604,3.587-3.584,3.59
				c-0.001,0-0.003,0-0.005,0c-1.98-0.001-3.586-1.607-3.585-3.588c0-1.979,1.604-3.586,3.585-3.587
				C-659.842,111.231-659.84,111.231-659.839,111.231 M-659.839,110.231h-0.003c-2.528,0.001-4.585,2.059-4.585,4.587
				c-0.001,2.528,2.055,4.586,4.584,4.588c2.536-0.003,4.592-2.062,4.59-4.59C-655.255,112.287-657.313,110.231-659.839,110.231
				L-659.839,110.231z"/>
		</g>
		<g>
			<path fill="#FC4415" d="M-650.239,118.905c-2.25-0.003-4.083-1.836-4.086-4.087c0.002-2.254,1.836-4.087,4.088-4.087
				c1.095,0,2.121,0.426,2.892,1.199c0.771,0.773,1.195,1.8,1.194,2.892C-646.151,117.073-647.985,118.905-650.239,118.905
				L-650.239,118.905z"/>
			<path fill="#FC4415" d="M-650.237,111.231c0.001,0,0.002,0,0.003,0c1.979,0.001,3.585,1.608,3.583,3.591
				c0,1.98-1.607,3.584-3.588,3.584c-0.001,0-0.001,0-0.002,0c-1.979-0.002-3.583-1.608-3.585-3.588c0,0,0-0.001,0-0.002
				C-653.823,112.835-652.217,111.231-650.237,111.231 M-650.233,110.231L-650.233,110.231h-0.004c-2.528,0-4.586,2.056-4.588,4.584
				c0.002,2.53,2.059,4.588,4.584,4.591c2.532,0,4.59-2.056,4.591-4.583c0.001-1.225-0.475-2.378-1.341-3.245
				C-647.857,110.709-649.008,110.231-650.233,110.231L-650.233,110.231z"/>
		</g>
	</g>
</g>
<g id="a_1_">
	<g transform="translate(798.066 629.71)">
		<path fill="#FC4415" d="M-412.307-24.802h-53.506c-1.933,0-3.506,1.574-3.506,3.507v36.786c0,0.937,0.364,1.817,1.026,2.48
			c0.662,0.662,1.543,1.027,2.48,1.027h31.26l-4.22-3.909c-0.551-0.517-0.876-1.245-0.895-1.921l0.012-1.18h-22.646v-29.775h46.488
			v29.77h-6.747l6.504,7.016h3.749c1.934,0,3.509-1.573,3.51-3.508v-36.787C-408.798-23.229-410.374-24.802-412.307-24.802z"/>
		<path fill="#FC4415" d="M-405.546,28.868h0.236c2.078,0,3.763-1.684,3.763-3.762s-1.685-3.762-3.763-3.762h-7.207L-405.546,28.868
			z"/>
		<path fill="#FC4415" d="M-472.804,21.345c-2.078,0-3.762,1.684-3.762,3.762s1.684,3.762,3.762,3.762h47.432l-8.121-7.523H-472.804
			z"/>
		<path fill="#FC4415" d="M-445.866-7.148c-0.058,0-0.146,0.058-0.276,0.19c-2.409,2.411-4.187,10.39,1.75,15.313
			c1.276,1.086,2.89,1.694,4.565,1.721c1.563,0.011,3.065-0.609,4.165-1.721c3.353-3.353,2.879-6.908,0-8.731
			c-0.779-0.485-1.684-0.73-2.602-0.704c-1.032,0-2.04,0.22-2.989,0.22c-0.565,0.017-1.127-0.096-1.642-0.329
			C-446.92-3.104-445.392-7.148-445.866-7.148z"/>
		<path fill="#FC4415" d="M-400.601,37.895l-28.327-30.487c-1.045-1.124-2.805-1.188-3.931-0.144
			c-0.023,0.022-0.047,0.045-0.07,0.068l-3.637,3.636c-1.086,1.084-1.086,2.844-0.002,3.93c0.023,0.023,0.048,0.047,0.072,0.069
			l30.443,28.379c1.559,1.452,4,1.365,5.452-0.194C-399.221,41.672-399.221,39.377-400.601,37.895L-400.601,37.895z
			 M-403.016,41.242c-0.438,0.418-1.125,0.423-1.567,0.011l-27.075-25.148l1.773-1.773l0.27-0.27l1.775-1.774l25.135,27.098
			c0.426,0.458,0.404,1.173-0.048,1.604L-403.016,41.242z"/>
	</g>
</g>
</svg>
