<?xml version="1.0" encoding="utf-8"?>
<!-- Generator: Adobe Illustrator 16.0.0, SVG Export Plug-In . SVG Version: 6.00 Build 0)  -->
<!DOCTYPE svg PUBLIC "-//W3C//DTD SVG 1.1//EN" "http://www.w3.org/Graphics/SVG/1.1/DTD/svg11.dtd">
<svg version="1.1" id="Layer_1" xmlns="http://www.w3.org/2000/svg" xmlns:xlink="http://www.w3.org/1999/xlink" x="0px" y="0px"
	 width="77px" height="77px" viewBox="321.5 601.5 77 77" enable-background="new 321.5 601.5 77 77" xml:space="preserve">
<g id="a">
	<g transform="translate(899 412.516)">
		<g>
			<path fill="#FC4415" d="M-570.366,259.457c-3.783-0.006-6.863-3.087-6.867-6.866v-50.211c0.004-3.783,3.084-6.864,6.867-6.869
				h62.728c3.785,0.002,6.868,3.083,6.872,6.868v50.211c-0.005,3.78-3.086,6.861-6.866,6.867H-570.366z M-570.84,252.589
				c0.001,0.259,0.214,0.471,0.474,0.471h62.728c0.261,0,0.474-0.212,0.474-0.472v-31.347h-63.675V252.589z M-507.16,214.843
				v-12.464c-0.001-0.26-0.214-0.473-0.475-0.473h-62.731h0.002c-0.261,0.001-0.474,0.214-0.475,0.475v12.462H-507.16z"/>
			<path fill="#FC4415" d="M-507.639,196.01c3.518,0.002,6.368,2.852,6.372,6.369v50.21c-0.005,3.516-2.852,6.361-6.367,6.367
				h-62.732c-3.515-0.006-6.363-2.852-6.367-6.367v-50.21c0.004-3.516,2.853-6.364,6.367-6.369H-507.639 M-571.339,215.343h64.679
				v-12.964c-0.002-0.537-0.436-0.972-0.974-0.973h-62.732c-0.537,0.002-0.971,0.436-0.973,0.973V215.343 M-570.366,253.56h62.732
				h-0.005c0.535-0.001,0.973-0.435,0.974-0.971v-31.848h-64.675v31.848C-571.338,253.127-570.903,253.56-570.366,253.56
				 M-507.638,195.01L-507.638,195.01h-62.729c-4.058,0.005-7.363,3.31-7.367,7.368v50.211c0.004,4.056,3.309,7.36,7.366,7.367
				h62.734c4.058-0.007,7.361-3.311,7.367-7.366v-50.211C-500.271,198.318-503.578,195.013-507.638,195.01L-507.638,195.01z
				 M-570.339,214.343v-11.964l62.706,0.027l-0.024,11.938H-570.339L-570.339,214.343z M-570.34,221.742h62.675v30.818h-62.675
				V221.742L-570.34,221.742z"/>
		</g>
		<g>
			<path fill="#FC4415" d="M-563.443,212.238c-2.249-0.005-4.079-1.839-4.08-4.087c0.004-2.257,1.837-4.087,4.087-4.087
				c1.099,0.001,2.124,0.428,2.895,1.202c0.771,0.773,1.194,1.801,1.191,2.893c-0.003,2.25-1.837,4.081-4.088,4.081
				C-563.438,212.238-563.443,212.238-563.443,212.238z"/>
			<path fill="#FC4415" d="M-563.436,204.564c0.002,0,0.004,0,0.006,0c1.98,0.002,3.584,1.612,3.58,3.593
				c-0.002,1.98-1.609,3.582-3.589,3.582c-0.001,0-0.003,0-0.004,0c-1.978-0.005-3.579-1.609-3.581-3.588c0-0.001,0-0.004,0-0.006
				C-567.02,206.165-565.415,204.564-563.436,204.564 M-563.436,203.564c-2.525,0-4.583,2.054-4.587,4.58
				c0.002,2.531,2.056,4.589,4.578,4.595c2.534,0,4.593-2.055,4.596-4.581c0.003-1.224-0.472-2.377-1.337-3.246
				s-2.016-1.347-3.241-1.349h-0.001H-563.436L-563.436,203.564z"/>
		</g>
		<g>
			<path fill="#FC4415" d="M-553.843,212.238c-2.254-0.001-4.086-1.835-4.085-4.088c0-2.252,1.833-4.085,4.084-4.086
				c2.255,0,4.088,1.833,4.09,4.084c0.001,2.253-1.831,4.087-4.084,4.09H-553.843z"/>
			<path fill="#FC4415" d="M-553.839,204.564c1.979,0,3.584,1.604,3.586,3.585c0.001,1.98-1.604,3.587-3.584,3.59
				c-0.001,0-0.003,0-0.005,0c-1.98-0.001-3.586-1.607-3.585-3.588c0-1.979,1.604-3.586,3.585-3.587
				C-553.842,204.564-553.84,204.564-553.839,204.564 M-553.839,203.564h-0.003c-2.528,0.001-4.585,2.059-4.585,4.587
				c-0.001,2.528,2.055,4.586,4.584,4.588c2.536-0.003,4.592-2.062,4.59-4.59C-549.255,205.62-551.313,203.564-553.839,203.564
				L-553.839,203.564z"/>
		</g>
		<g>
			<path fill="#FC4415" d="M-544.239,212.238c-2.25-0.003-4.083-1.836-4.086-4.087c0.002-2.254,1.836-4.087,4.088-4.087
				c1.095,0,2.121,0.426,2.892,1.199c0.771,0.773,1.195,1.8,1.194,2.892C-540.151,210.406-541.985,212.238-544.239,212.238
				L-544.239,212.238z"/>
			<path fill="#FC4415" d="M-544.237,204.564c0.001,0,0.002,0,0.003,0c1.979,0.001,3.585,1.608,3.583,3.591
				c0,1.98-1.607,3.584-3.588,3.584c-0.001,0-0.001,0-0.002,0c-1.979-0.002-3.583-1.608-3.585-3.588c0,0,0-0.001,0-0.002
				C-547.823,206.168-546.217,204.564-544.237,204.564 M-544.233,203.564L-544.233,203.564h-0.004c-2.528,0-4.586,2.056-4.588,4.584
				c0.002,2.53,2.059,4.588,4.584,4.591c2.532,0,4.59-2.056,4.591-4.583c0.001-1.225-0.475-2.378-1.341-3.245
				C-541.857,204.042-543.008,203.564-544.233,203.564L-544.233,203.564z"/>
		</g>
	</g>
</g>
</svg>
