<svg xmlns="http://www.w3.org/2000/svg" xmlns:xlink="http://www.w3.org/1999/xlink" viewBox="896 444 82 82"><defs><style>.a{clip-path:url(#b);}.b,.c{fill:#fc4415;}.b{stroke:#fc4415;stroke-width:2px;}</style><clipPath id="b"><rect x="896" y="444" width="82" height="82"/></clipPath></defs><g id="a" class="a"><g transform="translate(899 412.516)"><path class="b" d="M69.611,40.484H6.415A6.423,6.423,0,0,0,0,46.9V97.485A6.423,6.423,0,0,0,6.415,103.9h63.2a6.423,6.423,0,0,0,6.415-6.415V46.9A6.423,6.423,0,0,0,69.611,40.484ZM6.415,45.92h63.2a.982.982,0,0,1,.981.98V59.962H5.435V46.9A.982.982,0,0,1,6.415,45.92Zm63.2,52.544H6.415a.982.982,0,0,1-.981-.979V65.4H70.591V97.485A.982.982,0,0,1,69.611,98.464Z"/><path class="c" d="M66.408,103.042A3.614,3.614,0,1,0,62.8,99.428,3.616,3.616,0,0,0,66.408,103.042Z" transform="translate(-53.017 -46.713)"/><path class="c" d="M128.511,103.042a3.614,3.614,0,1,0-3.617-3.614A3.613,3.613,0,0,0,128.511,103.042Z" transform="translate(-105.444 -46.713)"/><path class="c" d="M190.635,103.042a3.614,3.614,0,1,0-3.611-3.614A3.616,3.616,0,0,0,190.635,103.042Z" transform="translate(-157.899 -46.713)"/></g></g></svg>